<?xml version="1.0" encoding="utf-8"?>
<!-- Generator: Adobe Illustrator 19.0.0, SVG Export Plug-In . SVG Version: 6.00 Build 0)  -->
<svg version="1.1" id="Layer_1" xmlns="http://www.w3.org/2000/svg" xmlns:xlink="http://www.w3.org/1999/xlink" x="0px" y="0px"
	 viewBox="0 0 352.2 92.8" style="enable-background:new 0 0 352.2 92.8;" xml:space="preserve">
<style type="text/css">
	.st0{fill:#FCD462;stroke:#F6C358;stroke-width:8;stroke-miterlimit:10;}
	.st1{fill:#DC8744;}
	.st2{fill:#FFFFFF;}
	.st3{fill:#FF4081;}
</style>
<circle id="XMLID_1_" class="st0" cx="46.4" cy="46.4" r="42.3"/>
<g id="XMLID_24_">
	<path id="XMLID_38_" class="st1" d="M58.7,63.6c-2.2,2.2-5.2,3.6-9,4.1v3.8c0,0.9-0.3,1.7-0.8,2.3c-0.6,0.6-1.3,0.9-2.2,0.9
		c-0.9,0-1.7-0.3-2.2-0.9c-0.6-0.6-0.8-1.3-0.8-2.3v-3.7c-2.3-0.2-4.5-0.7-6.7-1.4c-2.2-0.8-4-1.8-5.6-3c-0.5-0.4-0.9-0.8-1.1-1.2
		c-0.2-0.4-0.3-1-0.3-1.6c0-0.8,0.2-1.6,0.8-2.2c0.5-0.6,1.1-1,1.7-1c0.4,0,0.8,0.1,1.1,0.2c0.3,0.1,0.8,0.4,1.3,0.7
		c1.8,1.2,3.6,2.1,5.4,2.6c1.8,0.6,3.6,0.8,5.6,0.8c2.7,0,4.7-0.5,6.2-1.6c1.5-1,2.2-2.5,2.2-4.5c0-1.2-0.4-2.1-1.2-2.8
		c-0.8-0.7-1.8-1.3-3-1.7c-1.2-0.4-2.9-0.9-5-1.5c-3-0.8-5.4-1.5-7.3-2.3c-1.9-0.8-3.5-2-4.9-3.6c-1.4-1.6-2-3.8-2-6.5
		c0-3.2,1.2-6,3.5-8.3c2.3-2.3,5.4-3.7,9.1-4.3v-3.8c0-0.9,0.3-1.7,0.8-2.3c0.6-0.6,1.3-0.9,2.2-0.9c0.9,0,1.7,0.3,2.2,0.9
		c0.6,0.6,0.8,1.3,0.8,2.3v3.7c4,0.5,7.5,2,10.4,4.4c1,0.7,1.4,1.7,1.4,2.8c0,0.8-0.3,1.6-0.8,2.2c-0.5,0.6-1.1,1-1.8,1
		c-0.4,0-0.7-0.1-1-0.2c-0.3-0.1-0.8-0.4-1.4-0.7c-1.6-1.2-3.2-2-4.6-2.6c-1.5-0.6-3.2-0.9-5.2-0.9c-2.5,0-4.5,0.6-5.9,1.7
		c-1.5,1.1-2.2,2.6-2.2,4.5c0,1.3,0.4,2.4,1.3,3.2c0.8,0.8,1.9,1.5,3.2,1.9c1.3,0.4,3,0.9,5.2,1.5c2.9,0.7,5.3,1.5,7.1,2.2
		c1.8,0.8,3.4,1.9,4.7,3.5c1.3,1.5,2,3.6,2,6.3C62,58.7,60.9,61.4,58.7,63.6z"/>
</g>
<g id="XMLID_2_">
	<path id="XMLID_3_" class="st2" d="M144.3,45.4c0.6,0.5,0.8,1.3,0.8,2.1v12.9c0,1.8-0.2,3.1-0.7,3.9c-0.5,0.8-1.5,1.4-2.9,1.9
		c-1.6,0.6-3.5,1-5.6,1.3c-2.1,0.3-4.2,0.5-6.1,0.5c-4.4,0-8.1-0.9-11.3-2.6c-3.2-1.7-5.7-4.2-7.4-7.5c-1.7-3.3-2.5-7.1-2.5-11.7
		c0-4.4,0.8-8.3,2.5-11.5c1.7-3.3,4.1-5.8,7.2-7.5c3.1-1.7,6.8-2.6,11-2.6c5.6,0,10.3,1.5,13.9,4.6c0.5,0.4,0.8,0.9,1.1,1.3
		c0.2,0.4,0.3,1,0.3,1.6c0,0.9-0.2,1.6-0.7,2.2c-0.5,0.6-1.1,0.9-1.7,0.9c-0.4,0-0.8-0.1-1.2-0.2c-0.4-0.1-0.8-0.4-1.3-0.7
		c-1.8-1.2-3.4-2.1-4.9-2.6c-1.5-0.5-3.2-0.8-5.2-0.8c-4.4,0-7.6,1.3-9.9,3.9c-2.2,2.6-3.3,6.4-3.3,11.5c0,10.4,4.6,15.6,13.7,15.6
		c2.7,0,5.4-0.4,8.2-1.1V50.1h-6.8c-1,0-1.7-0.2-2.3-0.7s-0.8-1.2-0.8-2c0-0.9,0.3-1.6,0.8-2s1.3-0.7,2.3-0.7H142
		C142.9,44.6,143.7,44.8,144.3,45.4z"/>
	<path id="XMLID_25_" class="st2" d="M192.5,64.4c0,0.9-0.4,1.7-1.1,2.3c-0.7,0.6-1.6,1-2.5,1c-0.6,0-1.2-0.2-1.8-0.5
		c-0.6-0.3-1-0.9-1.3-1.6l-3.6-8H161l-3.6,8c-0.3,0.7-0.8,1.3-1.3,1.6c-0.6,0.3-1.2,0.5-1.9,0.5c-0.9,0-1.8-0.3-2.5-1
		c-0.8-0.6-1.1-1.4-1.1-2.3c0-0.5,0.1-1,0.4-1.6l16.6-35.6c0.4-0.8,0.9-1.4,1.6-1.8c0.7-0.4,1.5-0.6,2.4-0.6c0.8,0,1.6,0.2,2.4,0.6
		c0.7,0.4,1.3,1,1.6,1.8l16.6,35.6C192.4,63.3,192.5,63.9,192.5,64.4z M163.6,51.5h15.8l-7.9-17.8L163.6,51.5z"/>
	<path id="XMLID_28_" class="st2" d="M199.4,66.7c-0.7-0.7-1-1.7-1-2.8V28.7c0-1.2,0.3-2.1,1-2.8c0.7-0.7,1.6-1.1,2.8-1.1
		c1.2,0,2.1,0.4,2.9,1.1c0.7,0.7,1,1.6,1,2.8v35.2c0,1.2-0.4,2.1-1,2.8c-0.7,0.7-1.6,1.1-2.9,1.1C201,67.8,200.1,67.4,199.4,66.7z"
		/>
	<path id="XMLID_30_" class="st2" d="M249.9,25.9c0.7,0.7,1,1.6,1,2.8v35.2c0,1.2-0.3,2.1-1,2.8c-0.7,0.7-1.6,1.1-2.6,1.1
		c-1.3,0-2.3-0.5-2.9-1.4l-21.9-28.5v26c0,1.2-0.3,2.1-1,2.8c-0.6,0.7-1.5,1.1-2.6,1.1c-1.1,0-2-0.4-2.6-1.1c-0.6-0.7-1-1.7-1-2.8
		V28.7c0-1.2,0.3-2.1,1-2.8c0.7-0.7,1.6-1.1,2.7-1.1c1.2,0,2.2,0.5,2.9,1.4l21.8,28.4V28.7c0-1.2,0.3-2.1,1-2.8
		c0.7-0.7,1.5-1.1,2.6-1.1C248.3,24.8,249.2,25.2,249.9,25.9z"/>
	<path id="XMLID_32_" class="st3" d="M259.7,66.5c-0.8-0.9-1.3-1.9-1.3-3.2c0-1.3,0.4-2.3,1.3-3.2c0.8-0.9,1.9-1.3,3.2-1.3
		c1.3,0,2.3,0.4,3.2,1.3c0.8,0.9,1.3,1.9,1.3,3.2c0,1.3-0.4,2.4-1.3,3.2c-0.8,0.9-1.9,1.3-3.2,1.3C261.6,67.8,260.5,67.4,259.7,66.5
		z"/>
	<path id="XMLID_34_" class="st3" d="M307.3,45.4c0.6,0.5,0.8,1.3,0.8,2.1v12.9c0,1.8-0.2,3.1-0.7,3.9c-0.5,0.8-1.5,1.4-2.9,1.9
		c-1.6,0.6-3.5,1-5.6,1.3s-4.2,0.5-6.1,0.5c-4.4,0-8.1-0.9-11.3-2.6c-3.2-1.7-5.7-4.2-7.3-7.5c-1.7-3.3-2.5-7.1-2.5-11.7
		c0-4.4,0.8-8.3,2.5-11.5c1.7-3.3,4.1-5.8,7.2-7.5c3.1-1.7,6.8-2.6,11-2.6c5.6,0,10.3,1.5,13.9,4.6c0.5,0.4,0.8,0.9,1,1.3
		c0.2,0.4,0.3,1,0.3,1.6c0,0.9-0.2,1.6-0.7,2.2c-0.5,0.6-1.1,0.9-1.7,0.9c-0.4,0-0.8-0.1-1.2-0.2c-0.4-0.1-0.8-0.4-1.3-0.7
		c-1.8-1.2-3.4-2.1-4.9-2.6c-1.5-0.5-3.2-0.8-5.2-0.8c-4.4,0-7.6,1.3-9.9,3.9c-2.2,2.6-3.3,6.4-3.3,11.5c0,10.4,4.6,15.6,13.7,15.6
		c2.7,0,5.4-0.4,8.2-1.1V50.1h-6.8c-1,0-1.7-0.2-2.3-0.7s-0.8-1.2-0.8-2c0-0.9,0.3-1.6,0.8-2s1.3-0.7,2.3-0.7h10.6
		C306,44.6,306.8,44.8,307.3,45.4z"/>
	<path id="XMLID_36_" class="st3" d="M351.3,45.4c0.6,0.5,0.8,1.3,0.8,2.1v12.9c0,1.8-0.2,3.1-0.7,3.9c-0.5,0.8-1.5,1.4-2.9,1.9
		c-1.6,0.6-3.5,1-5.6,1.3s-4.2,0.5-6.1,0.5c-4.4,0-8.1-0.9-11.3-2.6c-3.2-1.7-5.7-4.2-7.3-7.5c-1.7-3.3-2.5-7.1-2.5-11.7
		c0-4.4,0.8-8.3,2.5-11.5c1.7-3.3,4.1-5.8,7.2-7.5c3.1-1.7,6.8-2.6,11-2.6c5.6,0,10.3,1.5,13.9,4.6c0.5,0.4,0.8,0.9,1,1.3
		c0.2,0.4,0.3,1,0.3,1.6c0,0.9-0.2,1.6-0.7,2.2c-0.5,0.6-1.1,0.9-1.7,0.9c-0.4,0-0.8-0.1-1.2-0.2c-0.4-0.1-0.8-0.4-1.3-0.7
		c-1.8-1.2-3.4-2.1-4.9-2.6c-1.5-0.5-3.2-0.8-5.2-0.8c-4.4,0-7.6,1.3-9.9,3.9c-2.2,2.6-3.3,6.4-3.3,11.5c0,10.4,4.6,15.6,13.7,15.6
		c2.7,0,5.4-0.4,8.2-1.1V50.1h-6.8c-1,0-1.7-0.2-2.3-0.7s-0.8-1.2-0.8-2c0-0.9,0.3-1.6,0.8-2s1.3-0.7,2.3-0.7h10.6
		C350,44.6,350.7,44.8,351.3,45.4z"/>
</g>
</svg>
