<?xml version="1.0" encoding="UTF-8" ?>
<!DOCTYPE svg PUBLIC "-//W3C//DTD SVG 1.1//EN" "http://www.w3.org/Graphics/SVG/1.1/DTD/svg11.dtd">
<svg width="909pt" height="1250pt" viewBox="0 0 909 1250" version="1.1" xmlns="http://www.w3.org/2000/svg">
<path fill="#000000" opacity="1.00" d=" M 442.31 26.66 C 450.45 26.78 458.60 26.76 466.74 26.68 L 466.36 27.34 C 474.19 27.17 482.01 27.98 489.83 27.64 L 489.22 28.28 C 497.46 28.13 505.56 29.82 513.78 29.69 L 513.29 30.27 C 516.47 30.48 519.67 30.90 522.86 30.53 L 522.20 31.25 C 525.06 31.50 527.93 31.77 530.81 31.63 L 530.25 32.28 C 532.72 32.47 535.19 32.69 537.69 32.72 L 537.39 33.25 C 539.82 33.44 542.25 33.81 544.70 33.65 L 544.34 34.28 C 546.41 34.48 548.49 34.69 550.59 34.69 L 550.52 35.27 C 552.54 35.47 554.56 35.66 556.60 35.71 L 556.48 36.31 C 558.56 36.49 560.64 36.67 562.74 36.73 L 562.33 37.39 C 564.09 37.48 565.85 37.66 567.63 37.71 L 567.46 38.35 C 569.17 38.46 570.87 38.64 572.58 38.71 L 572.51 39.36 C 574.23 39.47 575.94 39.66 577.68 39.72 L 577.42 40.26 C 580.53 40.64 583.55 41.59 586.70 41.80 L 586.43 42.39 C 588.21 42.52 589.98 42.68 591.78 42.72 L 591.16 43.34 C 596.27 44.07 601.15 45.80 606.19 46.86 C 607.46 47.28 608.79 47.54 610.10 47.88 C 611.55 48.46 613.09 48.73 614.67 48.74 L 614.38 49.26 C 616.83 49.74 619.21 50.57 621.72 50.82 L 621.40 51.34 C 622.09 51.46 623.46 51.69 624.15 51.80 C 625.61 52.41 627.17 52.66 628.75 52.84 L 628.31 53.49 C 629.16 53.54 630.85 53.63 631.69 53.68 L 631.46 54.36 C 632.14 54.46 633.51 54.65 634.19 54.74 C 637.65 56.00 641.11 57.47 644.81 57.85 L 644.32 58.36 C 646.44 58.90 648.52 59.63 650.73 59.81 L 650.34 60.57 C 651.20 60.60 652.93 60.67 653.79 60.70 L 653.33 61.40 C 654.98 61.73 656.57 62.30 658.17 62.81 C 659.13 63.20 660.10 63.58 661.08 63.94 C 662.24 64.32 663.43 64.62 664.65 64.85 L 664.47 65.30 C 666.06 65.69 667.61 66.28 669.16 66.87 C 670.29 67.30 671.46 67.62 672.66 67.83 L 672.47 68.48 C 673.30 68.54 674.98 68.68 675.82 68.75 L 675.45 69.97 C 675.84 69.85 676.61 69.62 676.99 69.51 C 679.67 71.01 682.55 72.41 685.64 72.76 L 685.52 73.44 C 687.87 73.85 689.90 75.19 692.20 75.80 C 693.86 76.74 695.61 77.58 697.54 77.79 L 697.60 78.40 C 700.03 78.86 702.05 80.54 704.55 80.81 L 704.67 81.75 C 705.02 81.70 705.71 81.59 706.05 81.54 C 707.67 82.78 709.55 83.69 711.64 83.79 L 711.45 84.80 C 711.96 84.73 712.99 84.58 713.51 84.51 L 713.67 85.75 C 714.02 85.71 714.71 85.63 715.06 85.58 C 718.71 87.65 722.52 89.70 726.58 90.81 L 726.57 91.79 C 727.06 91.72 728.05 91.58 728.54 91.51 L 728.62 92.77 C 729.09 92.70 730.02 92.57 730.48 92.50 L 730.71 93.75 C 731.14 93.68 732.01 93.53 732.45 93.46 L 732.69 94.69 C 733.03 94.67 733.71 94.62 734.05 94.60 C 734.66 94.91 735.86 95.53 736.47 95.84 L 736.73 96.70 C 737.16 96.64 738.02 96.52 738.44 96.47 L 738.73 97.68 C 739.08 97.65 739.76 97.61 740.10 97.58 C 740.60 97.94 741.59 98.65 742.08 99.01 C 742.68 99.21 743.88 99.60 744.47 99.79 L 744.77 100.74 C 745.20 100.67 746.06 100.54 746.49 100.47 L 746.71 101.79 C 747.05 101.73 747.73 101.61 748.07 101.55 C 748.92 102.19 749.80 102.80 750.72 103.37 C 754.93 105.39 758.92 107.85 763.15 109.84 C 764.03 110.33 764.91 110.84 765.79 111.38 C 770.28 113.88 774.53 116.37 779.13 118.78 C 781.53 120.20 783.76 122.13 786.55 122.75 L 786.34 123.25 C 788.00 123.94 789.37 125.23 791.14 125.71 C 792.62 127.01 794.29 128.07 796.15 128.77 C 798.65 130.69 801.43 132.21 804.16 133.80 C 805.13 134.50 806.11 135.23 807.22 135.74 C 808.80 136.82 810.30 138.07 812.14 138.73 C 812.97 139.61 814.02 140.29 815.17 140.76 C 822.15 145.47 829.20 150.10 836.20 154.77 C 837.12 155.51 838.10 156.21 839.12 156.85 C 842.51 159.08 845.66 161.69 849.18 163.76 C 851.48 165.61 853.80 167.53 856.49 168.81 L 856.45 169.23 C 857.67 170.08 858.88 170.95 860.18 171.72 C 865.44 175.79 870.77 179.82 876.19 183.69 C 878.89 185.82 881.43 188.31 884.55 189.81 L 884.30 190.22 C 887.51 192.14 890.11 194.93 893.36 196.80 C 893.31 406.10 893.33 615.39 893.34 824.69 L 892.61 824.37 C 892.59 828.13 892.25 831.88 892.30 835.65 L 891.73 835.45 C 891.52 837.84 891.28 840.26 891.30 842.68 L 890.61 842.36 C 890.50 844.11 890.32 845.87 890.30 847.65 L 889.63 847.39 C 889.50 848.62 889.36 849.87 889.22 851.12 C 888.62 852.38 888.36 853.73 888.11 855.11 C 887.51 856.57 887.31 858.13 887.22 859.72 L 886.65 859.35 C 886.54 860.06 886.33 861.47 886.22 862.18 C 885.54 863.66 885.28 865.27 885.17 866.91 L 884.52 866.19 C 884.46 867.11 884.32 868.95 884.25 869.87 L 883.52 869.29 C 883.46 870.19 883.33 871.99 883.26 872.89 L 882.67 872.30 C 882.31 873.96 881.77 875.60 881.12 877.18 C 880.72 878.31 880.40 879.46 880.15 880.65 L 879.69 880.51 C 879.18 882.19 878.49 883.84 878.20 885.60 L 877.63 885.51 C 877.12 887.21 876.39 888.85 876.18 890.64 L 875.22 890.44 C 875.28 890.96 875.41 891.99 875.48 892.51 L 874.25 892.67 C 874.29 893.02 874.39 893.71 874.43 894.06 C 873.00 895.90 872.24 898.14 871.21 900.22 C 870.96 900.71 870.48 901.71 870.24 902.20 C 868.90 904.49 867.95 907.01 866.34 909.14 C 866.38 909.37 866.48 909.81 866.53 910.03 C 864.60 912.08 863.50 914.69 862.23 917.16 C 861.13 918.74 859.99 920.32 859.32 922.16 C 858.11 923.69 856.97 925.30 856.26 927.13 C 854.74 929.05 853.52 931.16 852.24 933.24 C 850.21 936.21 848.16 939.18 846.23 942.22 C 845.46 943.13 844.80 944.14 844.04 945.07 C 843.81 945.59 843.36 946.64 843.14 947.17 C 840.55 949.21 838.94 952.35 837.09 955.07 C 836.36 955.67 835.73 956.38 835.22 957.18 C 834.24 958.50 833.16 959.76 832.30 961.17 C 829.54 964.45 826.88 967.82 824.22 971.18 C 822.58 973.19 820.75 975.03 819.22 977.12 C 817.54 979.15 815.71 981.04 814.04 983.08 C 813.41 983.71 812.80 984.36 812.19 985.03 C 811.95 985.35 811.48 985.99 811.25 986.31 C 808.63 989.46 805.31 992.02 803.11 995.50 L 802.50 995.37 L 802.27 996.40 L 801.25 996.67 L 801.55 997.59 L 800.40 997.38 L 800.59 998.49 L 799.83 998.46 C 791.75 1007.57 782.74 1015.83 774.18 1024.49 L 773.46 1024.53 L 773.47 1025.61 L 772.64 1025.34 L 772.36 1026.32 L 771.32 1026.50 L 771.71 1027.49 L 770.43 1027.22 L 770.46 1028.05 C 769.47 1028.53 768.69 1029.23 768.10 1030.15 C 765.24 1032.37 762.70 1034.97 760.17 1037.55 L 759.66 1037.43 L 759.34 1038.35 L 758.32 1038.51 L 758.51 1039.05 C 755.37 1041.02 753.08 1044.01 750.11 1046.20 C 749.37 1046.75 748.70 1047.38 748.09 1048.09 C 746.33 1049.32 744.83 1050.87 743.22 1052.28 C 742.96 1052.50 742.44 1052.94 742.18 1053.16 C 740.14 1054.52 738.57 1056.46 736.49 1057.78 L 736.43 1058.15 C 734.22 1059.41 732.61 1061.42 730.49 1062.79 L 730.43 1063.16 C 728.50 1064.27 726.90 1065.83 725.24 1067.28 C 724.97 1067.50 724.42 1067.93 724.15 1068.15 C 722.51 1069.32 721.01 1070.68 719.34 1071.80 L 719.59 1072.15 C 716.14 1074.03 713.25 1076.82 710.18 1079.27 C 707.15 1081.29 704.45 1083.75 701.44 1085.80 L 701.50 1086.17 C 699.84 1086.87 698.48 1088.06 697.17 1089.26 C 695.71 1090.07 694.42 1091.13 693.18 1092.23 C 691.75 1093.09 690.41 1094.10 689.17 1095.23 C 685.39 1097.74 681.74 1100.45 678.18 1103.25 C 675.72 1104.73 673.42 1106.45 671.17 1108.23 C 668.75 1109.79 666.33 1111.36 664.16 1113.26 C 663.01 1113.64 662.06 1114.41 661.19 1115.24 C 657.74 1117.44 654.33 1119.72 651.12 1122.26 C 650.20 1122.71 649.29 1123.18 648.38 1123.66 L 648.49 1124.25 C 647.20 1124.57 645.96 1125.16 645.21 1126.32 C 644.02 1126.62 643.01 1127.39 642.18 1128.27 C 641.06 1128.73 640.08 1129.43 639.17 1130.23 C 638.08 1130.76 637.12 1131.48 636.19 1132.25 C 635.03 1132.65 634.00 1133.37 633.18 1134.27 C 632.04 1134.70 631.06 1135.40 630.17 1136.23 C 629.02 1136.69 628.00 1137.37 627.12 1138.25 C 623.30 1140.28 619.81 1142.89 616.17 1145.23 C 615.05 1145.74 614.07 1146.46 613.14 1147.25 C 610.33 1148.67 607.68 1150.43 605.17 1152.32 C 604.20 1152.70 603.26 1153.14 602.35 1153.64 L 602.56 1154.21 C 600.46 1154.65 598.76 1155.96 597.17 1157.32 C 594.48 1158.30 592.33 1160.31 589.81 1161.62 C 587.95 1162.89 585.82 1163.74 584.13 1165.26 C 582.28 1165.93 580.61 1167.00 579.15 1168.31 C 577.24 1168.80 575.70 1170.05 574.17 1171.22 C 572.47 1171.87 570.98 1172.95 569.35 1173.73 L 569.57 1174.23 C 566.80 1174.88 564.47 1176.71 562.15 1178.28 C 560.63 1178.92 559.15 1179.68 557.79 1180.63 C 556.91 1181.21 556.01 1181.73 555.07 1182.20 C 553.48 1183.01 551.98 1184.00 550.35 1184.72 L 550.53 1185.59 C 550.17 1185.53 549.45 1185.39 549.08 1185.33 C 546.71 1187.39 543.60 1188.31 541.14 1190.25 C 538.90 1191.16 536.87 1192.48 534.78 1193.67 C 533.90 1194.20 533.00 1194.71 532.09 1195.20 C 529.02 1196.85 525.72 1198.23 523.04 1200.51 C 522.81 1200.47 522.37 1200.39 522.14 1200.35 C 519.09 1202.45 515.74 1204.10 512.40 1205.69 L 512.59 1206.24 C 511.96 1206.54 510.70 1207.14 510.07 1207.44 C 509.83 1207.42 509.34 1207.40 509.10 1207.38 C 504.04 1210.93 497.89 1212.71 493.03 1216.53 C 492.71 1216.43 492.07 1216.22 491.75 1216.12 L 491.47 1217.53 C 491.03 1217.46 490.15 1217.32 489.71 1217.25 L 489.52 1218.25 C 487.22 1218.70 485.20 1220.02 483.21 1221.20 C 480.49 1222.43 477.82 1223.78 475.24 1225.27 C 473.82 1225.77 472.48 1226.47 471.20 1227.24 C 469.45 1228.00 467.78 1228.93 466.05 1229.73 C 463.42 1231.12 460.72 1232.38 458.10 1233.80 C 454.38 1236.10 450.90 1232.99 447.35 1232.16 L 447.47 1231.17 C 446.97 1231.26 445.96 1231.43 445.46 1231.52 L 445.42 1230.25 C 444.95 1230.31 444.00 1230.44 443.52 1230.51 L 443.31 1229.20 C 442.87 1229.28 441.98 1229.45 441.54 1229.54 L 441.32 1228.20 C 440.87 1228.28 439.96 1228.45 439.51 1228.53 L 439.35 1227.21 C 438.89 1227.29 437.98 1227.45 437.52 1227.52 L 437.34 1226.22 C 436.89 1226.29 435.97 1226.44 435.52 1226.51 L 435.27 1225.14 C 434.94 1225.23 434.29 1225.39 433.96 1225.48 C 433.08 1224.77 432.15 1224.14 431.20 1223.58 C 426.38 1221.22 421.63 1218.74 416.87 1216.29 C 416.35 1216.03 415.33 1215.52 414.82 1215.26 C 412.55 1213.99 410.22 1212.82 407.91 1211.65 C 407.40 1211.31 406.37 1210.64 405.86 1210.31 C 405.52 1210.38 404.83 1210.53 404.49 1210.61 L 404.61 1209.75 C 400.60 1207.77 396.62 1205.73 392.82 1203.36 C 392.61 1203.40 392.18 1203.47 391.97 1203.51 C 389.00 1200.81 384.95 1199.84 381.86 1197.34 C 381.63 1197.39 381.19 1197.48 380.97 1197.53 C 378.68 1195.18 375.32 1194.48 372.89 1192.35 C 372.65 1192.39 372.17 1192.49 371.94 1192.54 C 369.96 1190.52 367.26 1189.54 364.86 1188.16 C 363.94 1187.69 363.06 1187.18 362.22 1186.62 C 360.82 1185.71 359.34 1184.94 357.84 1184.24 C 355.62 1182.72 353.29 1181.34 350.83 1180.26 C 348.52 1178.70 346.19 1176.93 343.46 1176.24 L 343.62 1175.73 C 341.99 1174.96 340.51 1173.93 338.86 1173.23 C 337.27 1172.09 335.68 1170.92 333.83 1170.28 C 332.31 1169.04 330.66 1167.98 328.82 1167.33 C 327.35 1165.98 325.58 1165.06 323.80 1164.23 C 322.25 1163.03 320.62 1161.90 318.77 1161.27 C 317.20 1159.64 314.97 1158.99 313.26 1157.59 C 312.44 1157.12 311.63 1156.68 310.81 1156.28 C 309.27 1155.05 307.61 1153.99 305.81 1153.23 C 304.88 1152.45 303.94 1151.66 302.80 1151.26 C 301.21 1150.17 299.74 1148.84 297.85 1148.31 C 297.11 1147.26 295.96 1146.71 294.82 1146.27 C 293.87 1145.48 292.88 1144.78 291.79 1144.26 C 290.07 1143.20 288.62 1141.57 286.53 1141.30 L 286.68 1140.67 C 285.73 1140.19 284.78 1139.73 283.83 1139.29 C 282.99 1138.38 281.96 1137.66 280.81 1137.25 C 279.89 1136.45 278.88 1135.80 277.83 1135.22 C 271.83 1131.22 265.85 1127.19 259.82 1123.22 C 258.88 1122.45 257.92 1121.73 256.81 1121.26 C 256.06 1120.28 254.99 1119.68 253.87 1119.27 C 250.68 1116.71 247.26 1114.44 243.83 1112.24 C 242.54 1111.15 241.20 1110.14 239.79 1109.24 C 238.83 1108.51 237.83 1107.87 236.83 1107.23 C 234.58 1105.45 232.26 1103.74 229.83 1102.22 C 228.56 1101.14 227.28 1100.07 225.82 1099.28 C 219.20 1094.24 212.53 1089.23 205.83 1084.29 C 204.51 1083.04 203.08 1081.90 201.44 1081.12 L 201.73 1080.70 C 194.64 1076.07 188.47 1070.05 181.55 1065.15 L 181.50 1064.79 C 179.49 1063.42 177.83 1061.62 175.82 1060.26 C 173.72 1058.56 171.88 1056.55 169.56 1055.15 L 169.55 1054.75 C 167.00 1053.30 165.29 1050.82 162.83 1049.25 C 160.31 1047.27 158.27 1044.72 155.50 1043.09 L 155.66 1042.62 C 155.31 1042.42 154.62 1042.01 154.27 1041.81 C 152.07 1039.98 150.18 1037.82 147.93 1036.07 C 147.26 1035.39 146.60 1034.72 145.95 1034.05 C 145.57 1033.85 144.82 1033.44 144.45 1033.23 L 144.56 1032.83 C 140.71 1029.92 137.64 1026.14 133.91 1023.09 C 133.31 1022.14 132.48 1021.47 131.43 1021.09 L 131.63 1020.07 L 130.33 1020.49 L 130.65 1019.34 L 129.45 1019.41 L 129.50 1018.25 L 128.38 1018.47 L 128.61 1017.42 L 127.52 1017.31 L 127.34 1016.24 L 126.42 1016.57 L 126.64 1015.39 L 125.47 1015.57 L 125.62 1014.41 L 124.46 1014.55 L 124.61 1013.39 L 123.86 1013.51 C 123.51 1013.16 122.83 1012.48 122.49 1012.14 L 122.60 1011.37 L 121.86 1011.49 C 121.52 1011.15 120.85 1010.48 120.51 1010.14 L 120.62 1009.40 L 119.46 1009.54 L 119.59 1008.38 L 118.43 1008.52 L 118.60 1007.36 L 117.43 1007.54 L 117.64 1006.37 L 116.46 1006.60 L 116.71 1005.38 L 115.43 1005.58 L 115.84 1004.54 L 114.66 1004.51 L 114.58 1003.38 L 113.98 1003.47 C 113.39 1002.59 112.72 1001.79 111.98 1001.07 C 108.78 997.46 105.10 994.29 102.16 990.46 L 101.78 990.55 C 101.56 990.17 101.14 989.40 100.93 989.02 C 100.25 988.38 99.59 987.73 98.95 987.08 C 97.33 985.01 95.43 983.21 93.75 981.21 C 93.53 980.95 93.11 980.42 92.89 980.16 C 91.27 978.08 89.45 976.18 87.76 974.18 C 86.37 972.17 84.55 970.51 83.21 968.47 L 82.83 968.44 C 80.70 964.76 77.24 962.03 75.31 958.24 L 74.85 958.58 C 74.18 956.88 73.01 955.47 71.75 954.19 C 70.97 952.89 70.10 951.66 69.23 950.44 L 68.80 950.48 C 67.57 947.76 65.54 945.52 63.77 943.15 C 63.19 942.10 62.56 941.07 61.77 940.19 C 59.81 937.16 57.84 934.13 55.76 931.18 C 55.28 930.04 54.63 928.96 53.70 928.15 C 53.08 926.27 51.87 924.70 50.70 923.15 C 49.99 921.33 48.91 919.72 47.77 918.16 C 46.50 915.69 45.41 913.08 43.48 911.04 C 43.52 910.81 43.62 910.36 43.67 910.13 C 41.29 906.73 39.79 902.82 37.77 899.21 C 37.51 898.69 37.01 897.64 36.75 897.11 C 36.25 895.97 35.76 894.83 35.41 893.66 L 34.50 893.48 C 34.57 893.00 34.71 892.03 34.78 891.55 L 33.79 891.64 C 33.62 889.67 32.79 887.86 31.77 886.22 C 31.32 884.46 30.57 882.80 29.78 881.19 C 29.29 879.46 28.63 877.80 27.84 876.20 C 27.53 875.17 27.21 874.15 26.86 873.15 C 25.78 870.17 24.96 867.10 23.74 864.18 C 23.65 863.45 23.46 861.98 23.36 861.25 L 22.72 861.85 C 22.62 860.22 22.83 858.49 21.73 857.15 C 21.58 855.77 21.32 854.40 20.77 853.13 C 20.61 851.87 20.46 850.62 20.33 849.38 L 19.71 849.66 C 19.65 847.93 19.45 846.21 19.33 844.50 L 18.72 844.61 C 18.71 842.40 18.52 840.19 17.80 838.10 C 17.70 834.11 16.47 830.28 16.31 826.31 L 15.69 826.73 C 15.23 802.49 15.61 778.24 15.49 754.00 C 15.48 568.25 15.50 382.51 15.48 196.77 C 16.72 196.38 17.75 195.60 18.77 194.84 C 19.04 194.58 19.60 194.05 19.87 193.79 C 22.34 191.98 24.43 189.71 26.77 187.74 C 27.03 187.51 27.56 187.06 27.82 186.83 C 29.88 185.45 31.45 183.46 33.61 182.22 L 33.52 181.88 C 35.32 180.84 36.85 179.43 38.52 178.21 L 38.55 177.85 C 40.40 176.86 41.87 175.31 43.65 174.21 L 43.46 173.88 C 45.10 173.11 46.48 171.92 47.84 170.75 C 49.80 169.08 52.36 168.03 53.85 165.88 C 57.48 163.98 60.53 161.15 63.83 158.72 C 65.12 157.95 66.35 157.09 67.58 156.23 L 67.51 155.83 C 68.73 155.35 69.83 154.63 70.82 153.77 C 73.24 152.22 75.55 150.50 77.86 148.79 C 78.91 148.21 79.88 147.52 80.81 146.77 C 82.87 145.54 84.80 144.13 86.77 142.77 C 89.80 140.80 92.84 138.85 95.80 136.78 C 96.90 136.23 97.91 135.52 98.87 134.76 C 101.64 133.29 104.27 131.54 106.80 129.69 C 107.77 129.25 108.73 128.79 109.69 128.30 L 109.47 127.79 C 111.48 127.26 113.27 126.12 114.80 124.73 C 116.70 124.17 118.26 122.93 119.83 121.79 C 121.50 121.06 123.01 120.04 124.65 119.27 L 124.47 118.40 C 124.83 118.47 125.54 118.60 125.90 118.67 C 127.67 116.90 130.34 116.43 131.92 114.44 C 132.15 114.50 132.63 114.61 132.87 114.67 C 135.29 112.50 138.68 111.82 140.95 109.45 C 141.18 109.51 141.64 109.62 141.87 109.67 C 145.39 107.15 149.43 105.45 153.23 103.40 C 154.17 102.84 155.07 102.22 155.92 101.53 C 156.26 101.60 156.93 101.74 157.27 101.81 L 157.54 100.46 C 157.97 100.53 158.85 100.69 159.28 100.76 L 159.48 99.75 C 161.08 99.52 162.51 98.70 163.87 97.88 C 164.39 97.56 165.42 96.93 165.94 96.61 C 166.27 96.63 166.95 96.66 167.28 96.67 L 167.55 95.47 C 167.99 95.54 168.86 95.68 169.30 95.75 L 169.53 94.47 C 169.98 94.54 170.89 94.68 171.35 94.76 L 171.48 93.50 C 171.96 93.56 172.92 93.70 173.40 93.77 L 173.51 92.43 C 173.99 92.54 174.95 92.78 175.43 92.89 L 175.35 91.85 C 178.78 91.17 181.67 89.09 184.89 87.84 C 185.42 87.54 186.46 86.94 186.99 86.64 C 187.35 86.67 188.07 86.72 188.43 86.75 L 188.39 85.82 C 191.11 85.35 193.62 84.06 195.93 82.59 C 196.30 82.63 197.04 82.73 197.42 82.77 L 197.38 81.79 C 199.45 81.67 201.30 80.68 202.99 79.55 C 203.35 79.62 204.09 79.75 204.45 79.82 L 204.30 78.88 C 206.04 78.53 207.71 77.89 209.41 77.37 L 209.44 76.78 C 211.36 76.55 213.13 75.73 214.82 74.81 C 216.55 74.32 218.23 73.65 219.82 72.80 C 221.39 72.32 222.93 71.76 224.51 71.28 L 224.34 70.83 C 226.08 70.50 227.75 69.86 229.48 69.42 L 229.40 68.84 C 230.59 68.63 231.75 68.34 232.90 67.95 C 234.39 67.18 236.03 66.70 237.71 66.53 L 237.03 65.79 C 237.93 65.71 239.72 65.53 240.61 65.45 L 240.31 64.84 C 241.52 64.62 242.73 64.33 243.91 63.96 C 244.89 63.57 245.87 63.19 246.86 62.82 C 248.45 62.35 250.00 61.75 251.64 61.43 L 251.37 60.80 C 256.05 60.32 260.31 58.07 264.82 56.84 C 265.85 56.52 266.87 56.16 267.87 55.75 C 268.53 55.65 269.87 55.45 270.54 55.34 L 270.29 54.70 C 271.15 54.64 272.88 54.51 273.75 54.45 L 273.14 53.82 C 275.80 53.61 278.43 52.91 280.82 51.71 C 281.52 51.64 282.91 51.52 283.61 51.46 L 283.33 50.76 C 284.89 50.71 286.45 50.44 287.87 49.79 C 288.57 49.69 289.96 49.51 290.66 49.42 L 290.38 48.68 C 291.77 48.62 293.16 48.53 294.56 48.43 L 294.34 47.82 C 295.91 47.62 297.51 47.39 299.00 46.83 C 300.30 46.56 301.59 46.23 302.87 45.86 C 304.20 45.55 305.53 45.25 306.84 44.84 C 308.21 44.62 309.57 44.27 310.87 43.76 C 312.08 43.60 313.29 43.45 314.51 43.32 L 314.42 42.68 C 315.80 42.61 317.19 42.53 318.58 42.43 L 318.38 41.72 C 320.26 41.71 322.16 41.56 323.90 40.77 C 325.16 40.63 326.43 40.50 327.70 40.38 L 327.28 39.71 C 329.05 39.68 330.82 39.51 332.59 39.41 L 332.37 38.71 C 334.14 38.66 335.91 38.50 337.68 38.40 L 337.26 37.74 C 339.50 37.72 341.79 37.56 343.94 36.80 C 345.48 36.64 347.03 36.43 348.59 36.34 L 348.34 35.72 C 350.42 35.68 352.50 35.49 354.57 35.33 L 354.34 34.72 C 356.45 34.66 358.55 34.49 360.66 34.36 L 360.36 33.64 C 362.78 33.75 365.20 33.52 367.62 33.29 L 367.32 32.70 C 369.83 32.73 372.33 32.52 374.84 32.28 L 374.14 31.67 C 377.03 31.83 379.91 31.50 382.80 31.30 L 382.17 30.70 C 385.63 30.79 389.08 30.48 392.54 30.24 L 392.36 29.70 C 396.08 29.76 399.80 29.41 403.53 29.23 L 403.37 28.66 C 407.83 28.87 412.29 28.33 416.75 28.29 L 416.20 27.67 C 425.03 27.93 433.85 27.12 442.69 27.30 L 442.31 26.66 M 433.21 79.70 L 433.82 80.33 C 427.37 80.07 420.92 80.51 414.47 80.76 L 414.64 81.34 C 410.61 81.16 406.59 81.57 402.57 81.77 L 402.63 82.32 C 399.51 82.25 396.40 82.52 393.30 82.73 L 393.74 83.41 C 389.43 82.87 385.23 84.13 380.97 84.44 C 379.85 84.87 377.60 84.01 377.24 85.48 C 374.97 85.22 372.71 85.54 370.46 85.72 L 370.65 86.31 C 368.55 86.34 366.47 86.51 364.39 86.66 L 364.72 87.27 C 362.63 87.32 360.54 87.49 358.46 87.67 L 358.61 88.32 C 356.43 88.25 354.22 88.41 352.18 89.23 C 350.64 89.40 349.09 89.57 347.55 89.73 L 347.79 90.31 C 345.86 90.23 343.95 90.53 342.13 91.15 C 339.23 91.60 336.39 92.38 333.48 92.74 L 333.65 93.22 C 330.39 93.39 327.25 94.29 324.13 95.17 C 322.76 95.39 321.43 95.75 320.11 96.15 C 318.77 96.43 317.45 96.74 316.15 97.12 C 313.84 97.68 311.57 98.41 309.21 98.72 L 309.82 99.27 C 308.37 99.36 306.93 99.47 305.49 99.59 L 305.67 100.18 C 303.21 100.48 300.86 101.25 298.45 101.77 L 298.69 102.20 C 296.08 102.42 293.57 103.21 291.19 104.28 C 290.50 104.37 289.12 104.54 288.43 104.63 L 288.71 105.31 C 287.87 105.37 286.19 105.47 285.35 105.52 L 285.72 106.17 C 280.36 106.82 275.58 109.61 270.30 110.60 L 270.86 111.26 C 269.98 111.32 268.21 111.43 267.33 111.49 L 267.76 112.29 C 266.92 112.35 265.24 112.47 264.41 112.53 L 264.63 113.16 C 263.43 113.38 262.25 113.69 261.11 114.08 C 259.56 114.72 257.99 115.37 256.31 115.49 L 256.89 116.07 C 255.56 116.23 254.29 116.58 253.09 117.11 C 250.41 118.04 247.74 118.99 245.19 120.21 C 243.44 120.67 241.80 121.43 240.18 122.21 C 237.92 122.85 235.87 124.06 233.59 124.63 L 233.55 125.23 C 231.02 125.36 229.04 127.19 226.57 127.55 L 226.57 128.19 C 224.05 128.43 222.02 130.13 219.58 130.63 L 219.52 131.14 C 218.92 131.36 217.70 131.79 217.09 132.00 C 214.74 133.02 212.38 134.00 210.15 135.25 C 208.99 135.73 207.84 136.22 206.63 136.58 L 206.49 137.49 C 206.01 137.43 205.04 137.32 204.55 137.27 L 204.61 138.17 C 200.97 138.99 197.88 141.22 194.49 142.69 C 191.04 144.69 187.06 145.88 184.02 148.53 C 183.71 148.43 183.07 148.23 182.76 148.13 L 182.53 149.24 C 178.66 150.32 175.40 152.91 171.78 154.62 C 170.90 155.18 170.01 155.70 169.09 156.20 C 166.69 157.51 163.99 158.50 162.09 160.55 C 161.85 160.49 161.36 160.39 161.12 160.33 C 159.32 161.96 156.96 162.74 155.11 164.29 C 153.23 164.89 151.65 166.08 150.12 167.28 C 148.26 167.91 146.64 169.03 145.16 170.30 C 143.31 170.92 141.70 172.07 140.22 173.31 C 139.24 173.75 138.28 174.21 137.33 174.70 L 137.54 175.22 C 134.43 176.24 131.92 178.49 129.18 180.22 C 128.08 180.75 127.07 181.45 126.16 182.25 C 125.03 182.68 123.92 183.29 123.20 184.29 C 122.00 184.62 121.01 185.39 120.17 186.28 C 119.02 186.67 118.00 187.36 117.18 188.25 C 113.72 190.39 110.36 192.71 107.15 195.22 C 104.71 196.73 102.42 198.44 100.18 200.23 C 98.76 201.10 97.43 202.12 96.18 203.21 C 94.75 204.11 93.42 205.14 92.17 206.27 C 89.03 208.39 86.07 210.79 83.20 213.26 C 81.38 214.39 79.81 215.86 78.19 217.25 C 76.20 218.64 74.46 220.36 72.50 221.82 L 72.43 222.17 C 69.87 223.61 68.03 225.97 65.74 227.77 C 65.38 227.97 64.66 228.39 64.30 228.59 L 64.49 229.06 C 63.32 229.50 62.53 230.30 62.09 231.46 L 61.56 231.36 C 59.72 234.62 60.37 238.46 60.26 242.03 C 60.28 415.01 60.27 587.98 60.27 760.96 C 60.43 778.95 59.30 797.16 63.15 814.87 C 63.77 817.87 63.98 821.02 65.22 823.86 C 65.42 825.21 65.73 826.55 66.20 827.85 C 66.31 828.57 66.53 830.01 66.64 830.73 L 67.21 830.24 C 67.33 831.76 67.58 833.31 68.08 834.77 C 68.43 835.79 68.79 836.81 69.17 837.83 C 69.72 839.42 70.35 841.01 70.46 842.73 L 71.22 842.06 C 71.30 842.93 71.44 844.68 71.52 845.56 L 72.17 845.33 C 72.47 847.07 73.10 848.73 73.59 850.44 L 74.18 850.42 C 74.46 852.93 76.04 855.00 76.61 857.42 L 77.19 857.46 C 78.85 863.02 82.10 867.99 84.61 873.20 C 85.71 874.62 86.09 876.43 87.24 877.83 C 88.14 879.55 88.99 881.33 90.27 882.82 C 90.94 884.65 92.04 886.28 93.23 887.82 C 96.64 894.01 100.93 899.66 104.77 905.60 L 105.20 905.52 C 106.37 908.26 108.44 910.50 110.25 912.83 C 111.13 914.25 112.18 915.56 113.26 916.85 C 114.32 918.54 115.78 919.95 116.79 921.69 L 117.13 921.48 C 118.13 923.50 119.67 925.18 121.20 926.82 C 122.38 928.61 123.84 930.20 125.31 931.77 C 125.51 932.04 125.91 932.57 126.11 932.83 C 127.69 934.90 129.52 936.76 131.23 938.72 C 131.48 939.01 131.98 939.58 132.23 939.87 C 134.81 943.35 138.26 946.07 140.82 949.57 L 141.61 949.53 L 141.29 950.42 L 142.39 950.52 L 142.40 951.65 L 143.48 951.38 L 143.30 952.73 L 144.10 952.51 C 144.52 953.51 145.19 954.31 146.10 954.92 C 152.51 961.82 159.20 968.49 166.08 974.91 C 166.67 975.83 167.49 976.48 168.53 976.86 L 168.08 977.60 L 169.50 977.46 L 169.43 978.78 L 170.36 978.45 C 170.66 978.78 171.26 979.43 171.55 979.76 L 171.38 980.52 L 172.15 980.48 C 175.37 983.71 178.66 986.89 182.13 989.86 C 182.49 990.09 183.20 990.55 183.55 990.78 L 183.44 991.18 C 186.26 993.08 188.36 995.82 191.15 997.77 C 193.61 999.78 195.75 1002.21 198.49 1003.89 L 198.44 1004.21 C 200.47 1005.57 202.14 1007.40 204.15 1008.81 C 206.16 1010.45 208.00 1012.35 210.22 1013.74 C 211.84 1015.26 213.51 1016.78 215.49 1017.86 L 215.40 1018.22 C 217.11 1019.22 218.47 1020.72 220.17 1021.75 C 223.07 1024.21 226.04 1026.64 229.21 1028.75 C 230.48 1030.00 231.86 1031.21 233.57 1031.82 L 233.34 1032.20 C 237.51 1034.92 241.13 1038.45 245.50 1040.87 L 245.44 1041.23 C 246.67 1042.08 247.88 1042.96 249.17 1043.75 C 251.53 1045.53 253.76 1047.59 256.49 1048.81 L 256.45 1049.26 C 258.78 1050.62 260.82 1052.41 263.15 1053.78 C 266.38 1056.27 269.73 1058.58 273.16 1060.78 C 274.09 1061.69 275.24 1062.42 276.51 1062.82 L 276.45 1063.26 C 285.54 1068.99 294.10 1075.66 303.51 1080.82 L 303.35 1081.30 C 304.28 1081.78 305.22 1082.26 306.16 1082.74 C 310.69 1085.98 315.49 1088.83 320.22 1091.76 C 321.80 1092.87 323.43 1093.91 325.17 1094.79 C 326.14 1095.51 327.15 1096.20 328.22 1096.80 C 329.08 1097.26 329.92 1097.77 330.74 1098.34 C 333.25 1099.74 335.56 1101.49 338.15 1102.75 C 339.73 1103.87 341.36 1104.94 343.15 1105.72 C 345.50 1107.23 347.77 1109.08 350.53 1109.79 L 350.36 1110.27 C 351.99 1111.02 353.42 1112.17 355.15 1112.73 C 356.90 1114.39 359.37 1114.97 361.10 1116.68 C 361.46 1116.61 362.18 1116.47 362.55 1116.40 L 362.33 1117.27 C 363.98 1118.00 365.51 1118.98 367.14 1119.81 C 368.05 1120.27 368.93 1120.80 369.78 1121.39 C 371.57 1122.44 373.52 1123.24 375.09 1124.66 C 375.34 1124.61 375.84 1124.50 376.09 1124.44 C 378.23 1126.93 381.75 1127.45 384.09 1129.71 C 384.34 1129.64 384.83 1129.51 385.07 1129.45 C 387.63 1131.90 391.08 1133.15 394.16 1134.83 C 395.04 1135.33 395.92 1135.85 396.81 1136.38 C 400.51 1138.58 404.62 1140.15 408.07 1142.73 C 408.31 1142.67 408.79 1142.54 409.03 1142.47 C 413.62 1145.88 419.06 1148.06 424.11 1150.71 C 425.41 1151.46 426.63 1152.45 428.17 1152.71 C 429.07 1153.31 430.01 1153.88 430.97 1154.42 C 432.12 1154.94 433.28 1155.50 434.53 1155.80 L 434.71 1156.76 C 435.15 1156.68 436.03 1156.53 436.46 1156.46 L 436.70 1157.75 C 437.14 1157.68 438.03 1157.54 438.47 1157.48 L 438.72 1158.76 C 439.15 1158.69 440.02 1158.54 440.45 1158.46 L 440.75 1159.82 C 441.18 1159.72 442.05 1159.52 442.49 1159.42 L 442.58 1160.71 C 443.07 1160.66 444.07 1160.58 444.56 1160.53 L 444.53 1161.69 C 445.02 1161.65 446.01 1161.57 446.50 1161.53 L 446.71 1162.77 C 447.14 1162.69 448.01 1162.53 448.44 1162.45 L 448.70 1163.74 C 449.15 1163.68 450.03 1163.55 450.47 1163.48 L 450.75 1164.82 C 451.05 1164.75 451.66 1164.62 451.97 1164.55 C 453.29 1165.97 455.50 1165.76 457.11 1165.04 C 466.86 1160.25 476.53 1155.31 486.22 1150.42 C 487.15 1149.82 488.06 1149.19 488.94 1148.54 C 489.28 1148.61 489.94 1148.75 490.27 1148.82 L 490.52 1147.49 C 490.88 1147.53 491.59 1147.59 491.95 1147.63 C 496.14 1144.86 500.82 1142.85 505.21 1140.40 C 506.15 1139.83 507.06 1139.22 507.94 1138.57 C 508.18 1138.58 508.66 1138.60 508.89 1138.60 C 512.00 1136.13 516.06 1135.20 518.97 1132.46 C 519.20 1132.52 519.65 1132.63 519.88 1132.69 C 522.23 1130.43 525.78 1129.94 527.92 1127.43 C 528.17 1127.50 528.65 1127.63 528.90 1127.70 C 531.27 1125.60 534.39 1124.68 536.90 1122.77 C 539.36 1121.66 541.69 1120.28 543.90 1118.74 C 546.35 1117.69 548.64 1116.26 550.83 1114.74 C 552.63 1113.97 554.33 1113.03 555.83 1111.78 C 557.53 1111.11 559.01 1110.01 560.68 1109.28 L 560.48 1108.41 C 560.81 1108.47 561.48 1108.58 561.82 1108.63 C 563.76 1107.20 565.91 1106.13 567.86 1104.72 C 569.66 1103.95 571.26 1102.84 572.85 1101.73 C 576.27 1099.96 579.46 1097.79 582.72 1095.76 C 583.83 1095.23 584.88 1094.54 585.83 1093.77 C 587.56 1092.93 589.18 1091.88 590.74 1090.76 C 591.89 1090.28 592.87 1089.49 593.85 1088.75 C 597.66 1086.67 601.29 1084.23 604.85 1081.74 C 605.77 1081.25 606.71 1080.78 607.65 1080.32 L 607.48 1079.82 C 608.78 1079.39 609.96 1078.68 611.08 1077.91 C 618.97 1072.49 627.20 1067.52 634.84 1061.74 C 635.96 1061.32 637.02 1060.66 637.78 1059.72 C 641.27 1057.63 644.58 1055.21 647.82 1052.75 C 650.26 1051.22 652.61 1049.53 654.84 1047.71 C 656.11 1046.94 657.31 1046.05 658.56 1045.23 L 658.51 1044.79 C 665.63 1040.59 671.80 1034.88 678.66 1030.24 L 678.47 1029.84 C 680.15 1029.18 681.50 1027.95 682.82 1026.76 C 684.50 1025.67 685.94 1024.24 687.67 1023.23 L 687.43 1022.89 C 690.86 1020.98 693.70 1018.18 696.76 1015.75 C 697.04 1015.52 697.60 1015.05 697.87 1014.82 C 699.48 1013.70 700.90 1012.32 702.51 1011.21 L 702.56 1010.88 C 704.89 1009.47 706.74 1007.44 708.87 1005.78 C 710.96 1004.24 712.84 1002.45 714.76 1000.72 C 715.03 1000.51 715.57 1000.09 715.84 999.87 C 718.30 997.99 720.47 995.76 722.86 993.78 C 725.84 991.48 728.40 988.71 731.22 986.23 C 731.57 985.99 732.27 985.53 732.61 985.30 L 732.58 984.92 C 733.46 984.37 734.24 983.71 734.93 982.94 C 739.17 979.21 743.06 975.10 747.21 971.29 C 747.54 971.01 748.20 970.46 748.53 970.18 L 748.49 969.49 L 749.53 969.49 L 749.53 968.43 L 750.23 968.56 C 750.56 968.22 751.23 967.54 751.57 967.21 L 751.49 966.87 C 751.83 966.53 752.51 965.85 752.85 965.51 L 753.60 965.62 L 753.46 964.46 L 754.61 964.61 L 754.46 963.45 L 755.63 963.60 L 755.49 962.84 C 755.83 962.52 756.51 961.87 756.85 961.54 L 757.51 961.53 L 757.49 960.49 L 758.19 960.53 C 758.46 960.20 759.01 959.54 759.29 959.21 C 763.38 954.56 768.25 950.54 771.90 945.51 L 772.36 945.64 C 772.57 945.30 772.98 944.61 773.19 944.26 C 775.36 941.77 777.82 939.52 779.80 936.86 C 780.04 936.59 780.51 936.03 780.75 935.75 C 782.39 933.75 784.31 931.98 785.75 929.81 C 787.17 928.22 788.63 926.64 789.79 924.83 C 791.32 923.19 792.84 921.49 793.87 919.48 L 794.24 919.66 C 795.46 917.16 797.99 915.56 798.86 912.85 C 802.38 909.40 805.01 904.91 807.74 900.79 C 808.83 900.00 809.38 898.75 809.76 897.52 L 810.35 897.61 C 810.81 896.68 811.26 895.74 811.69 894.80 C 812.70 894.06 813.26 892.91 813.73 891.79 C 814.46 890.82 815.20 889.85 815.80 888.79 C 816.95 886.35 818.89 884.38 819.76 881.81 C 821.84 879.45 822.60 876.26 824.71 873.91 C 824.65 873.67 824.53 873.21 824.48 872.98 C 827.66 868.61 830.04 863.53 831.83 858.45 L 832.73 858.32 C 832.69 857.98 832.61 857.29 832.57 856.95 C 833.74 855.30 834.66 853.42 834.79 851.39 L 835.46 851.49 C 835.91 849.77 836.52 848.11 836.82 846.37 L 837.38 846.55 C 837.71 844.94 838.29 843.40 838.85 841.87 C 839.21 840.88 839.54 839.89 839.85 838.89 C 840.20 837.86 840.56 836.83 840.93 835.82 C 841.41 834.39 841.68 832.88 841.75 831.39 L 842.46 831.64 C 842.53 830.94 842.68 829.55 842.76 828.86 C 843.56 827.50 843.59 825.87 843.78 824.38 L 844.33 824.50 C 844.46 823.28 844.61 822.08 844.78 820.89 C 845.50 819.15 845.75 817.28 845.60 815.42 C 845.81 815.43 846.24 815.44 846.45 815.45 C 846.50 813.40 846.65 811.36 846.71 809.33 L 847.33 809.60 C 847.55 807.13 847.76 804.66 847.61 802.19 L 848.26 802.75 C 848.61 798.21 848.86 793.67 848.68 789.13 L 849.40 789.89 C 849.51 772.73 849.26 755.57 849.37 738.42 L 843.03 738.00 L 849.35 737.59 C 849.31 735.85 849.31 734.13 849.35 732.41 L 843.17 732.00 L 849.35 731.58 C 849.31 729.85 849.31 728.13 849.35 726.41 L 841.32 726.00 L 849.37 725.58 C 849.26 702.20 849.26 678.80 849.37 655.42 L 842.15 655.00 L 849.37 654.59 C 849.38 515.70 849.31 376.81 849.44 237.93 C 849.42 236.61 849.23 235.31 848.99 234.03 C 848.75 233.53 848.27 232.54 848.03 232.04 C 847.11 230.94 846.08 229.94 844.84 229.22 C 843.55 228.16 842.23 227.15 840.84 226.27 C 839.57 225.15 838.25 224.09 836.79 223.26 C 835.53 221.99 834.16 220.76 832.44 220.19 L 832.70 219.78 C 829.57 217.86 826.95 215.21 823.82 213.29 C 821.28 211.10 818.48 209.26 815.80 207.26 C 814.85 206.52 813.86 205.83 812.83 205.23 C 811.52 204.16 810.18 203.13 808.78 202.20 C 807.80 201.53 806.85 200.84 805.86 200.23 C 803.53 198.50 801.20 196.77 798.75 195.24 C 796.81 193.83 794.84 192.49 792.83 191.21 C 791.85 190.49 790.87 189.81 789.84 189.20 C 788.86 188.48 787.88 187.80 786.84 187.21 C 785.85 186.50 784.87 185.77 783.79 185.23 C 782.83 184.48 781.86 183.79 780.80 183.24 C 778.17 181.50 775.62 179.64 772.81 178.21 C 770.24 176.43 767.66 174.59 764.83 173.28 C 763.32 172.02 761.64 170.94 759.81 170.24 C 758.31 169.00 756.65 167.93 754.84 167.23 C 753.29 166.07 751.68 164.96 749.86 164.28 C 747.66 162.69 745.26 161.41 742.84 160.22 C 739.71 157.93 735.95 156.68 732.90 154.30 C 732.55 154.38 731.85 154.54 731.50 154.62 L 731.60 153.73 C 727.92 152.09 724.56 149.82 720.86 148.24 C 719.83 147.69 718.86 147.07 717.94 146.38 C 717.59 146.41 716.89 146.48 716.54 146.52 L 716.27 145.26 C 715.84 145.33 714.96 145.46 714.52 145.52 L 714.29 144.24 C 713.85 144.31 712.98 144.47 712.55 144.54 L 712.28 143.25 C 711.85 143.32 710.98 143.46 710.54 143.53 L 710.29 142.25 C 709.85 142.32 708.97 142.46 708.53 142.53 L 708.30 141.26 C 707.86 141.32 706.97 141.45 706.52 141.52 L 706.30 140.25 C 705.86 140.32 704.99 140.46 704.55 140.53 L 704.30 139.29 C 703.87 139.35 703.01 139.48 702.57 139.54 L 702.33 138.64 C 697.84 137.25 694.02 134.14 689.40 133.23 L 689.45 132.28 C 688.96 132.33 687.99 132.43 687.51 132.48 L 687.35 131.63 C 684.23 130.86 681.63 128.74 678.45 128.18 L 678.42 127.65 C 676.13 127.05 674.08 125.83 671.82 125.16 C 670.18 124.08 668.31 123.38 666.36 123.21 L 666.47 122.58 C 664.15 122.08 662.08 120.89 659.84 120.20 C 658.19 119.45 656.52 118.75 654.84 118.10 C 653.66 117.71 652.47 117.38 651.27 117.12 L 651.56 116.70 C 649.95 116.29 648.40 115.71 646.87 115.11 C 645.71 114.69 644.52 114.37 643.32 114.16 L 643.60 113.54 C 642.75 113.47 641.04 113.33 640.19 113.26 L 640.65 112.62 C 639.00 112.24 637.39 111.73 635.81 111.19 C 634.83 110.80 633.85 110.45 632.87 110.13 C 631.88 109.79 630.89 109.45 629.91 109.13 C 628.90 108.77 627.90 108.44 626.91 108.13 C 625.90 107.76 624.89 107.43 623.88 107.13 C 622.85 106.77 621.82 106.45 620.79 106.19 C 618.36 105.22 615.85 104.35 613.23 104.18 L 613.72 103.51 C 612.87 103.47 611.19 103.37 610.35 103.33 L 610.51 102.66 C 609.83 102.56 608.47 102.36 607.78 102.26 C 605.52 101.37 603.18 100.70 600.82 100.13 C 599.36 99.60 597.80 99.33 596.27 99.21 L 596.55 98.59 C 595.11 98.47 593.68 98.37 592.25 98.29 L 592.71 97.55 C 591.23 97.45 589.76 97.36 588.30 97.30 L 588.64 96.69 C 584.45 96.12 580.51 94.30 576.25 94.21 L 576.63 93.58 C 575.22 93.47 573.82 93.39 572.42 93.31 L 572.47 92.64 C 570.74 92.51 569.01 92.33 567.29 92.28 L 567.68 91.62 C 566.45 91.50 565.23 91.38 564.02 91.27 C 562.30 90.55 560.42 90.41 558.59 90.16 C 557.09 89.55 555.46 89.40 553.88 89.16 C 551.75 88.51 549.54 88.23 547.32 88.29 L 547.57 87.65 C 545.48 87.50 543.38 87.32 541.29 87.28 L 541.64 86.64 C 539.54 86.50 537.43 86.33 535.33 86.27 L 535.59 85.68 C 533.13 85.49 530.67 85.27 528.22 85.28 L 528.74 84.69 C 526.27 84.49 523.80 84.24 521.32 84.32 L 521.60 83.74 C 518.85 83.50 516.09 83.25 513.33 83.33 L 513.61 82.77 C 510.15 82.52 506.69 82.22 503.23 82.29 L 503.64 81.73 C 499.52 81.53 495.41 81.16 491.29 81.31 L 491.62 80.71 C 484.78 80.46 477.94 80.09 471.09 80.32 L 471.92 79.62 C 459.02 79.46 446.11 79.39 433.21 79.70 Z" />
<path fill="#000000" opacity="1.00" d=" M 424.25 172.68 C 429.75 172.91 435.22 172.28 440.72 172.33 L 440.20 171.68 C 452.08 171.75 463.96 171.79 475.84 171.66 L 475.18 172.27 C 481.08 172.27 486.96 172.93 492.86 172.67 L 492.16 173.33 C 496.10 173.44 500.02 173.90 503.97 173.68 L 503.02 174.33 C 505.30 174.47 507.60 174.68 509.90 174.72 C 512.73 175.66 515.75 175.66 518.70 175.72 L 518.38 176.30 C 520.30 176.42 522.22 176.61 524.14 176.79 C 526.61 177.61 529.23 177.77 531.82 177.72 L 531.22 178.38 C 533.00 178.47 534.79 178.65 536.58 178.71 L 536.53 179.31 C 538.03 179.39 539.53 179.62 541.04 179.80 C 542.82 180.41 544.69 180.68 546.58 180.76 L 546.57 181.32 C 548.27 181.47 549.97 181.66 551.69 181.72 L 551.37 182.36 C 552.61 182.48 553.86 182.62 555.11 182.78 C 556.86 183.59 558.80 183.74 560.71 183.73 L 560.30 184.52 C 561.75 184.59 563.21 184.64 564.67 184.68 L 564.32 185.52 C 565.78 185.59 567.24 185.65 568.71 185.68 L 568.23 186.49 C 568.95 186.56 570.38 186.69 571.09 186.76 C 572.49 187.54 574.09 187.66 575.67 187.74 L 575.36 188.39 C 576.06 188.49 577.45 188.69 578.14 188.79 C 579.56 189.43 581.09 189.70 582.65 189.75 L 582.38 190.50 C 583.22 190.55 584.92 190.64 585.77 190.69 L 585.40 191.34 C 586.08 191.45 587.44 191.65 588.12 191.75 C 589.12 192.16 590.14 192.52 591.18 192.84 C 595.18 194.10 599.12 195.57 603.14 196.80 C 604.12 197.18 605.10 197.56 606.09 197.95 C 607.25 198.32 608.42 198.62 609.62 198.85 L 609.53 199.29 C 611.10 199.71 612.62 200.30 614.14 200.88 C 615.29 201.31 616.47 201.63 617.70 201.86 L 617.36 202.32 C 618.99 202.74 620.60 203.30 622.21 203.85 C 623.85 204.79 625.62 205.54 627.52 205.77 L 627.61 206.34 C 629.28 206.88 630.91 207.54 632.66 207.85 L 632.58 208.79 C 632.94 208.73 633.66 208.63 634.02 208.57 C 636.36 209.95 638.82 211.20 641.49 211.80 C 641.56 211.97 641.69 212.30 641.76 212.47 C 645.59 213.33 648.70 216.04 652.56 216.83 L 652.62 217.75 C 653.08 217.68 653.99 217.54 654.45 217.48 L 654.67 218.39 C 655.86 218.80 657.04 219.27 658.21 219.79 C 660.76 221.27 663.44 222.61 666.17 223.76 C 667.64 224.99 669.68 225.27 671.05 226.66 C 671.41 226.62 672.12 226.53 672.48 226.49 L 672.73 227.82 C 673.18 227.71 674.08 227.50 674.53 227.40 L 674.35 228.25 C 678.25 229.75 681.50 232.69 685.56 233.75 L 685.36 234.30 C 687.40 235.17 689.40 236.21 691.10 237.67 C 691.35 237.61 691.87 237.50 692.12 237.44 C 693.38 239.08 695.29 239.95 697.16 240.72 C 698.70 241.90 700.32 243.06 702.17 243.71 C 703.69 244.93 705.32 246.07 707.19 246.73 C 709.78 248.67 712.51 250.63 715.56 251.82 L 715.30 252.31 C 716.25 252.77 717.20 253.25 718.15 253.74 C 719.05 254.54 720.05 255.25 721.16 255.78 C 722.12 256.49 723.11 257.19 724.17 257.78 C 725.12 258.51 726.14 259.17 727.19 259.79 C 728.12 260.51 729.12 261.18 730.15 261.79 C 731.07 262.54 732.09 263.20 733.13 263.79 C 736.43 266.17 739.70 268.63 743.17 270.75 C 746.85 273.54 750.43 276.59 754.49 278.82 L 754.37 279.29 C 758.84 282.14 762.79 285.74 767.19 288.75 C 770.07 291.23 773.09 293.54 776.13 295.84 C 776.48 296.08 777.19 296.57 777.55 296.81 L 777.51 297.57 L 778.67 297.53 L 778.14 298.83 L 779.30 298.16 C 779.43 299.63 779.56 301.11 779.70 302.60 L 780.33 302.29 C 780.23 305.48 780.23 308.69 780.36 311.89 L 779.68 311.10 L 779.75 313.92 L 780.47 313.16 C 780.13 316.98 780.25 320.82 780.34 324.65 L 778.74 324.72 L 780.18 325.68 C 780.33 330.88 780.35 336.10 780.17 341.29 L 778.84 342.28 L 780.32 342.36 C 780.31 343.42 780.31 345.54 780.30 346.59 L 778.62 347.00 L 780.31 347.42 C 780.27 349.15 780.27 350.88 780.31 352.62 L 778.50 353.00 L 780.32 353.40 C 780.24 358.46 780.23 363.53 780.33 368.60 L 778.53 369.00 L 780.33 369.40 C 780.23 374.48 780.23 379.57 780.33 384.65 L 778.74 384.72 L 780.18 385.68 C 780.43 395.98 780.14 406.30 780.32 416.61 L 778.52 416.99 L 780.31 417.40 C 780.31 418.45 780.31 420.56 780.31 421.61 L 778.52 422.00 L 780.33 422.40 C 780.23 425.48 780.24 428.57 780.34 431.66 L 778.73 431.72 L 780.18 432.67 C 780.40 435.99 780.19 439.32 780.32 442.65 L 778.75 442.71 C 781.54 443.82 779.80 447.40 780.32 449.66 L 778.73 449.72 C 781.56 450.83 779.78 454.48 780.38 456.77 L 779.74 456.18 C 779.74 458.05 779.73 459.92 779.71 461.79 L 780.34 461.18 C 780.11 470.56 780.44 479.95 780.18 489.32 L 778.73 490.28 L 780.32 490.34 C 780.26 492.76 780.26 495.17 780.32 497.60 L 778.59 497.99 L 780.33 498.43 C 780.23 501.55 780.23 504.67 780.37 507.80 L 779.68 507.16 L 779.75 509.94 L 780.46 509.11 C 780.07 519.32 780.31 529.55 780.33 539.76 L 779.68 539.34 C 779.68 540.16 779.70 541.79 779.70 542.61 L 780.34 542.33 C 780.23 545.84 780.24 549.36 780.33 552.88 L 779.66 552.19 C 779.70 559.65 779.76 567.12 779.63 574.58 L 786.01 575.00 L 779.63 575.42 C 779.74 590.14 779.73 604.86 779.63 619.59 L 787.84 620.00 L 779.67 620.41 C 779.66 621.54 779.63 623.81 779.62 624.95 L 780.29 624.07 C 780.27 626.01 780.27 627.95 780.30 629.90 L 779.59 629.09 C 779.63 653.91 779.74 678.75 779.63 703.58 L 787.64 704.00 L 779.63 704.41 C 779.71 707.13 779.71 709.85 779.63 712.57 L 785.93 713.01 L 779.64 713.41 C 779.65 714.61 779.67 717.01 779.67 718.21 L 780.27 716.45 C 780.28 717.75 780.31 720.36 780.32 721.67 L 778.73 721.71 L 780.18 722.68 C 780.45 726.77 780.11 730.88 780.37 734.98 L 779.74 734.02 L 779.69 736.78 L 780.36 736.24 C 780.21 743.37 780.21 750.52 780.36 757.65 L 779.73 757.41 C 779.98 764.56 778.57 771.58 778.29 778.68 L 777.64 778.36 C 777.58 779.91 777.37 781.45 777.25 783.02 C 776.41 784.77 776.32 786.74 776.26 788.67 L 775.62 788.41 C 775.48 789.81 775.37 791.22 775.29 792.65 L 774.60 792.51 C 774.47 793.92 774.37 795.34 774.29 796.78 L 773.63 796.26 C 773.52 796.98 773.31 798.42 773.21 799.13 C 772.44 800.57 772.29 802.19 772.17 803.80 L 770.99 803.40 C 771.10 803.77 771.33 804.52 771.44 804.90 C 770.94 805.96 770.51 807.05 770.12 808.18 C 769.37 809.80 768.74 811.49 768.19 813.20 C 767.39 814.80 766.71 816.46 766.14 818.16 C 763.24 823.83 760.94 829.85 757.30 835.11 C 757.38 835.47 757.53 836.18 757.60 836.54 L 756.73 836.34 C 755.99 837.99 754.97 839.50 754.21 841.15 C 753.09 842.74 751.93 844.33 751.25 846.18 C 750.36 847.01 749.69 848.04 749.24 849.18 C 747.80 851.12 746.50 853.15 745.22 855.19 C 744.46 856.11 743.78 857.10 743.22 858.17 C 741.45 860.55 739.46 862.82 738.15 865.51 L 737.76 865.44 C 736.82 866.76 735.82 868.05 735.14 869.55 L 734.77 869.33 C 733.83 871.10 732.26 872.44 731.27 874.19 C 729.79 875.87 728.20 877.49 727.14 879.48 L 726.78 879.41 C 725.48 881.52 723.53 883.12 722.14 885.17 C 721.92 885.43 721.48 885.96 721.27 886.22 C 719.55 888.18 717.68 890.00 716.09 892.07 C 715.41 892.73 714.73 893.38 714.05 894.03 C 713.84 894.41 713.44 895.17 713.23 895.55 L 712.83 895.45 C 709.01 900.37 704.12 904.33 700.12 909.08 C 699.31 909.63 698.63 910.30 698.07 911.10 C 696.95 911.96 695.95 912.95 695.09 914.07 C 694.27 914.59 693.59 915.26 693.06 916.08 C 688.99 919.45 685.66 923.63 681.43 926.81 L 681.56 927.21 C 681.17 927.43 680.41 927.86 680.03 928.07 C 679.38 928.73 678.73 929.39 678.09 930.07 C 675.71 931.78 673.96 934.24 671.43 935.76 L 671.40 936.14 C 670.44 936.58 669.68 937.25 669.13 938.15 C 667.28 939.26 665.84 940.89 664.21 942.28 C 663.95 942.49 663.43 942.92 663.17 943.14 C 661.04 944.67 659.16 946.52 657.15 948.20 C 655.40 949.42 653.81 950.85 652.22 952.27 C 647.17 956.20 642.12 960.17 637.18 964.24 C 630.49 969.20 623.80 974.21 617.18 979.27 C 615.88 980.05 614.63 980.91 613.39 981.78 L 613.48 982.21 C 610.84 983.24 608.86 985.39 606.41 986.77 L 606.47 987.23 C 605.20 987.57 604.05 988.24 603.19 989.24 C 599.76 991.46 596.34 993.72 593.13 996.26 C 591.97 996.62 590.96 997.35 590.19 998.29 C 589.01 998.61 587.96 999.33 587.20 1000.28 C 586.06 1000.69 584.97 1001.31 584.20 1002.27 C 583.04 1002.69 581.98 1003.37 581.15 1004.29 C 579.99 1004.65 578.90 1005.29 578.16 1006.28 C 575.30 1007.53 572.90 1009.59 570.27 1011.22 C 569.13 1011.73 568.14 1012.47 567.21 1013.29 C 566.25 1013.73 565.31 1014.19 564.38 1014.69 L 564.50 1015.18 C 561.48 1016.41 558.76 1018.33 556.17 1020.27 C 552.68 1021.94 549.45 1024.15 546.19 1026.24 C 544.40 1027.07 542.71 1028.09 541.15 1029.30 C 539.31 1029.99 537.69 1031.12 536.13 1032.29 C 534.31 1032.96 532.67 1034.01 531.18 1035.24 C 528.67 1036.27 526.37 1037.72 524.13 1039.24 C 520.98 1040.65 518.18 1042.64 515.12 1044.21 C 513.55 1045.09 511.96 1045.94 510.36 1046.77 L 510.52 1047.62 C 510.16 1047.55 509.45 1047.39 509.09 1047.32 C 506.06 1049.47 502.70 1051.12 499.36 1052.72 L 499.52 1053.63 C 499.08 1053.51 498.21 1053.28 497.77 1053.16 L 497.51 1054.21 C 492.21 1056.14 487.56 1059.55 482.34 1061.73 L 482.58 1062.27 C 481.96 1062.55 480.72 1063.12 480.09 1063.40 C 479.83 1063.39 479.31 1063.36 479.05 1063.34 C 474.03 1066.93 467.82 1068.65 463.03 1072.55 C 462.66 1072.43 461.93 1072.19 461.56 1072.07 L 461.80 1073.31 C 460.78 1073.31 458.75 1073.31 457.73 1073.30 C 455.56 1071.94 453.15 1071.03 450.95 1069.73 C 449.22 1068.89 447.54 1067.98 445.80 1067.22 C 444.32 1066.01 442.29 1065.72 440.97 1064.33 C 440.61 1064.38 439.88 1064.47 439.52 1064.52 L 439.29 1063.17 C 438.83 1063.28 437.92 1063.50 437.46 1063.61 L 437.64 1062.74 C 433.00 1060.39 428.17 1058.22 423.90 1055.25 C 423.67 1055.33 423.20 1055.49 422.97 1055.56 C 420.36 1053.17 416.98 1051.84 413.90 1050.19 C 412.98 1049.70 412.09 1049.18 411.22 1048.64 C 409.09 1047.52 407.11 1046.13 404.88 1045.25 C 400.32 1042.39 395.61 1039.71 390.83 1037.28 C 388.53 1035.69 386.20 1033.87 383.43 1033.25 L 383.71 1032.76 C 382.28 1032.20 381.03 1031.31 379.86 1030.37 C 379.52 1030.43 378.85 1030.55 378.51 1030.61 L 378.62 1029.76 C 376.90 1028.91 375.36 1027.65 373.47 1027.21 L 373.65 1026.77 C 371.92 1025.90 370.36 1024.62 368.45 1024.20 L 368.70 1023.67 C 367.72 1023.20 366.76 1022.73 365.79 1022.28 C 364.28 1021.04 362.63 1019.97 360.82 1019.24 C 357.32 1016.69 353.59 1014.42 349.86 1012.22 C 347.89 1010.80 345.85 1009.50 343.78 1008.24 C 335.74 1002.97 327.82 997.53 319.79 992.25 C 319.00 991.31 317.96 990.68 316.83 990.28 C 315.58 989.12 314.22 988.13 312.79 987.24 C 311.81 986.53 310.85 985.82 309.82 985.22 C 307.56 983.47 305.26 981.74 302.83 980.23 C 298.93 977.09 294.75 974.34 290.83 971.23 C 286.65 968.31 282.84 964.86 278.54 962.15 L 278.54 961.80 C 276.95 960.62 275.42 959.39 273.82 958.26 C 272.16 956.90 270.62 955.39 268.79 954.28 C 267.11 952.80 265.50 951.20 263.51 950.15 L 263.58 949.80 C 261.50 948.48 259.87 946.61 257.85 945.24 C 256.23 943.81 254.62 942.39 252.93 941.05 C 252.27 940.40 251.59 939.78 250.90 939.17 C 248.70 937.73 247.11 935.56 244.91 934.12 C 244.29 933.42 243.64 932.76 242.96 932.14 C 242.65 931.92 242.03 931.48 241.71 931.26 C 239.11 928.87 236.61 926.37 233.95 924.05 C 233.27 923.22 232.46 922.56 231.52 922.07 L 231.70 921.31 L 230.35 921.44 L 230.63 920.33 L 229.45 920.36 L 229.38 919.20 L 228.39 919.57 L 228.68 918.39 L 227.54 918.62 L 227.55 917.53 L 226.50 917.51 L 226.53 916.81 C 226.20 916.54 225.53 916.01 225.20 915.74 C 222.16 912.82 219.18 909.83 216.26 906.80 C 215.99 906.47 215.46 905.80 215.19 905.47 L 214.49 905.50 L 214.47 904.46 L 213.39 904.45 L 213.66 903.63 L 212.69 903.36 L 212.47 902.35 L 211.50 902.74 L 211.86 901.45 L 210.55 901.65 L 210.85 900.37 L 209.90 900.57 C 207.79 897.01 204.34 894.52 201.77 891.31 C 201.53 890.99 201.05 890.35 200.81 890.04 C 200.19 889.36 199.57 888.71 198.94 888.07 C 197.61 886.38 196.16 884.81 194.72 883.23 C 194.51 882.97 194.08 882.44 193.87 882.18 C 188.82 875.85 183.46 869.70 179.02 862.92 C 178.71 862.75 178.10 862.39 177.79 862.21 C 177.40 860.22 175.88 858.82 174.74 857.26 C 172.77 854.24 170.80 851.21 168.76 848.25 C 167.08 845.55 165.59 842.75 163.77 840.16 C 163.05 838.65 162.27 837.17 161.38 835.78 C 160.84 834.90 160.32 834.03 159.80 833.16 C 158.34 829.71 156.37 826.50 154.72 823.14 C 154.23 821.98 153.77 820.82 153.40 819.64 L 152.83 819.53 C 152.21 816.94 150.99 814.56 149.83 812.19 C 149.34 810.60 148.74 809.06 148.31 807.47 L 147.85 807.67 C 147.61 806.45 147.31 805.25 146.96 804.08 C 146.57 803.07 146.16 802.09 145.73 801.13 C 145.64 800.46 145.44 799.12 145.35 798.46 L 144.70 798.72 C 144.64 797.85 144.52 796.10 144.46 795.22 L 143.69 795.74 C 143.63 794.29 143.54 792.85 143.44 791.43 L 142.78 791.67 C 142.64 788.49 141.52 785.47 141.28 782.31 L 140.72 782.72 C 140.70 780.24 140.47 777.78 140.29 775.33 L 139.65 775.83 C 139.82 771.97 139.40 768.14 139.23 764.30 L 138.62 764.74 C 138.88 610.08 138.67 455.42 138.66 300.77 C 140.48 296.46 144.53 293.86 147.77 290.73 C 148.03 290.51 148.55 290.06 148.81 289.83 C 150.89 288.50 152.43 286.49 154.56 285.22 L 154.49 284.85 C 156.51 283.84 158.07 282.16 159.78 280.72 C 161.65 279.66 163.13 278.07 164.81 276.75 C 170.16 272.77 175.54 268.82 180.83 264.76 C 184.19 262.75 187.22 260.22 190.61 258.25 L 190.49 257.79 C 191.60 257.40 192.67 256.90 193.70 256.31 L 193.51 255.74 C 194.61 255.35 195.67 254.89 196.70 254.35 L 196.47 253.81 C 200.53 252.00 204.08 249.20 207.81 246.80 C 210.44 245.55 212.75 243.77 215.29 242.35 C 217.74 240.71 220.48 239.53 222.85 237.75 C 224.37 237.04 225.86 236.27 227.26 235.33 C 228.11 234.80 228.97 234.29 229.84 233.79 C 232.06 232.84 234.05 231.45 236.23 230.40 C 237.16 229.84 238.05 229.24 238.92 228.58 C 239.17 228.59 239.69 228.61 239.94 228.63 C 241.75 227.18 243.93 226.35 245.94 225.25 C 246.87 224.76 247.80 224.25 248.73 223.74 C 250.79 222.84 252.78 221.78 254.76 220.71 C 256.85 219.85 258.85 218.79 260.85 217.75 C 262.00 217.27 263.14 216.76 264.34 216.40 L 264.51 215.53 C 264.99 215.57 265.96 215.66 266.44 215.70 L 266.44 214.78 C 269.17 214.36 271.60 212.92 273.97 211.57 C 274.31 211.61 275.01 211.68 275.35 211.71 L 275.45 210.82 C 277.93 210.49 279.95 208.83 282.40 208.41 L 282.46 207.77 C 284.38 207.62 286.10 206.75 287.77 205.86 C 289.51 205.35 291.23 204.71 292.82 203.82 C 294.38 203.36 295.90 202.76 297.47 202.31 L 297.39 201.84 C 298.57 201.62 299.73 201.31 300.87 200.90 C 302.48 200.15 304.19 199.66 305.97 199.54 L 304.09 198.81 C 305.22 198.73 307.47 198.56 308.60 198.47 L 308.29 197.85 C 309.52 197.62 310.73 197.32 311.93 196.93 C 312.91 196.57 313.90 196.21 314.89 195.86 C 315.89 195.55 316.89 195.21 317.88 194.86 C 318.90 194.55 319.91 194.23 320.93 193.90 C 321.93 193.55 322.92 193.17 323.90 192.75 C 324.60 192.66 326.00 192.50 326.70 192.41 L 326.16 191.83 C 328.83 191.62 331.40 190.80 333.83 189.72 C 334.57 189.64 336.04 189.48 336.78 189.39 L 336.08 188.77 C 337.70 188.70 339.37 188.59 340.84 187.84 C 343.11 187.32 345.35 186.67 347.65 186.27 L 347.35 185.68 C 348.75 185.62 350.16 185.54 351.57 185.44 L 351.37 184.69 C 352.78 184.62 354.19 184.54 355.60 184.44 L 355.30 183.78 C 358.43 183.70 361.38 182.57 364.47 182.23 L 364.37 181.78 C 366.25 181.64 368.13 181.36 369.95 180.82 C 371.59 180.58 373.24 180.30 374.84 179.78 C 376.36 179.63 377.88 179.38 379.41 179.27 L 379.44 178.70 C 381.17 178.66 382.90 178.47 384.63 178.39 L 384.32 177.70 C 386.85 177.73 389.43 177.64 391.84 176.78 C 393.80 176.61 395.75 176.43 397.72 176.29 L 397.25 175.70 C 400.18 175.69 403.19 175.74 406.01 174.77 C 408.63 174.69 411.24 174.42 413.87 174.30 L 413.09 173.65 C 416.96 173.96 420.82 173.33 424.69 173.33 L 424.25 172.68 M 436.19 318.22 C 436.24 320.04 436.29 321.86 436.34 323.69 L 434.93 323.66 L 436.31 324.82 L 436.24 326.27 L 434.81 327.31 L 436.33 327.33 C 436.23 339.45 436.24 351.57 436.32 363.68 L 435.24 363.66 C 435.39 364.06 435.69 364.85 435.84 365.25 C 432.76 365.28 429.69 365.58 426.62 365.62 C 426.59 365.82 426.54 366.22 426.51 366.42 C 424.14 366.30 421.77 366.51 419.41 366.60 C 419.47 366.79 419.59 367.19 419.65 367.39 C 417.57 367.28 415.50 367.48 413.45 367.71 L 413.63 368.29 C 411.88 368.33 410.17 368.52 408.44 368.62 L 408.63 369.33 C 407.14 369.36 405.65 369.41 404.18 369.48 L 404.81 370.26 C 403.02 370.30 401.26 370.47 399.48 370.59 L 399.63 371.31 C 398.24 371.38 396.86 371.49 395.49 371.61 L 395.68 372.18 C 393.24 372.45 390.90 373.21 388.52 373.77 L 388.64 374.32 C 387.81 374.38 386.15 374.49 385.32 374.55 L 385.78 375.14 C 383.65 375.39 381.62 376.09 379.59 376.73 L 379.57 377.18 C 377.85 377.54 376.19 378.14 374.48 378.53 L 374.72 379.13 C 372.96 379.42 371.29 380.05 369.61 380.62 L 369.55 381.17 C 365.14 382.65 360.72 384.65 357.04 387.52 C 356.81 387.47 356.36 387.38 356.13 387.33 C 351.91 390.16 347.60 392.86 343.39 395.71 L 343.54 396.19 C 341.83 396.79 340.41 397.96 339.19 399.26 C 336.53 400.95 334.41 403.31 332.16 405.48 L 331.47 405.51 L 331.48 406.17 C 331.15 406.49 330.49 407.15 330.16 407.48 L 329.47 407.45 L 329.53 408.51 L 328.80 408.48 C 327.08 410.99 324.43 412.75 323.09 415.54 L 322.77 415.32 C 320.65 418.65 317.92 421.58 316.22 425.18 C 314.54 427.79 312.71 430.47 312.17 433.60 L 311.20 433.52 C 311.28 434.01 311.43 434.98 311.50 435.46 L 310.63 435.62 C 310.19 437.14 309.64 438.63 309.09 440.11 C 308.64 441.24 308.33 442.42 308.18 443.63 L 307.66 443.47 C 307.55 444.14 307.32 445.49 307.21 446.16 C 306.77 447.40 306.49 448.70 306.19 449.99 C 305.10 454.48 304.10 459.08 304.34 463.74 L 303.76 463.43 C 303.43 469.79 303.49 476.16 303.72 482.53 L 304.31 482.36 C 304.31 485.60 304.13 488.96 305.25 492.06 C 305.42 495.40 306.20 498.67 307.16 501.86 C 307.61 504.24 308.31 506.57 309.21 508.83 C 309.71 510.38 310.22 511.94 310.66 513.53 L 311.17 513.36 C 311.45 515.70 312.73 517.74 313.64 519.88 C 314.86 522.51 316.45 524.96 317.67 527.60 L 318.18 527.45 C 318.60 529.53 320.09 531.09 321.23 532.80 C 323.77 536.33 326.31 539.91 329.55 542.85 L 329.47 543.68 L 330.35 543.38 L 330.44 544.47 L 331.60 544.52 L 331.12 545.55 L 332.46 545.40 L 332.39 546.70 L 333.66 546.52 L 333.34 547.52 L 334.39 547.75 L 334.69 548.81 L 335.26 548.44 C 335.56 548.77 336.17 549.43 336.48 549.76 L 336.48 550.16 C 338.50 551.57 340.10 553.48 342.15 554.85 C 342.43 555.08 342.99 555.53 343.27 555.76 C 344.47 556.86 345.75 557.89 347.15 558.75 C 349.40 560.55 351.71 562.30 354.21 563.76 C 356.78 565.53 359.29 567.52 362.19 568.75 C 363.62 570.06 365.33 571.00 367.14 571.73 C 370.84 574.46 375.28 576.02 379.03 578.64 C 379.39 578.61 380.12 578.54 380.49 578.51 L 380.71 579.76 C 381.15 579.68 382.02 579.53 382.45 579.46 L 382.71 580.75 C 383.15 580.68 384.03 580.54 384.47 580.47 L 384.67 581.74 C 385.12 581.67 386.01 581.54 386.46 581.48 L 386.67 582.40 C 387.85 582.78 388.99 583.27 390.16 583.73 C 392.55 584.95 394.90 586.40 397.61 586.83 L 397.59 587.78 C 397.95 587.73 398.68 587.63 399.05 587.58 C 401.23 589.03 403.70 590.00 406.18 590.80 C 407.77 591.61 409.40 592.38 411.15 592.82 C 412.74 593.66 414.39 594.44 416.18 594.80 C 417.77 595.61 419.43 596.28 421.11 596.90 C 422.26 597.30 423.43 597.61 424.63 597.85 L 424.49 598.41 C 426.20 598.86 427.87 599.49 429.63 599.82 L 429.47 600.32 C 431.43 600.96 433.39 601.73 435.49 601.75 C 435.70 633.93 435.48 666.12 435.60 698.31 C 433.87 698.26 432.16 698.29 430.44 698.33 L 430.41 697.80 C 426.74 697.64 423.08 697.29 419.40 697.31 L 419.41 696.76 C 416.72 696.54 414.03 696.28 411.34 696.28 L 411.60 695.66 C 409.52 695.49 407.43 695.31 405.34 695.29 L 405.60 694.64 C 403.86 694.52 402.14 694.33 400.41 694.30 L 400.48 693.68 C 398.77 693.53 397.06 693.33 395.36 693.29 L 395.56 692.66 C 394.33 692.52 393.10 692.39 391.88 692.25 C 386.59 690.68 381.17 689.53 375.83 688.13 C 374.54 687.68 373.19 687.47 371.88 687.14 C 370.47 686.45 368.90 686.31 367.37 686.27 L 367.59 685.64 C 366.90 685.53 365.51 685.32 364.81 685.22 C 363.53 684.75 362.20 684.45 360.88 684.16 C 358.61 683.27 356.26 682.56 353.85 682.21 C 351.44 681.10 348.85 680.45 346.22 680.18 L 346.65 679.63 C 345.94 679.54 344.52 679.36 343.81 679.27 C 340.90 678.04 337.84 677.23 334.89 676.13 C 333.72 675.72 332.54 675.40 331.34 675.17 L 331.51 674.58 C 330.65 674.48 328.92 674.30 328.06 674.20 L 328.68 673.42 C 326.19 673.36 324.12 671.87 321.81 671.18 C 320.07 670.36 318.33 669.47 316.41 669.18 L 316.44 668.68 C 314.04 668.03 311.93 666.53 309.44 666.20 L 309.39 665.24 C 309.05 665.27 308.36 665.33 308.02 665.36 C 306.96 664.51 305.60 664.27 304.36 663.88 C 304.42 690.54 304.40 717.21 304.37 743.87 C 305.93 744.59 307.51 745.29 309.16 745.82 C 310.76 746.63 312.43 747.34 314.17 747.81 C 315.81 748.60 317.51 749.31 319.27 749.83 C 320.21 750.19 321.15 750.56 322.09 750.94 C 323.27 751.30 324.46 751.60 325.67 751.84 L 325.46 752.44 C 326.29 752.51 327.94 752.64 328.76 752.71 L 328.42 753.39 C 329.09 753.48 330.44 753.66 331.12 753.76 C 332.10 754.17 333.10 754.56 334.12 754.94 C 335.57 755.42 337.08 755.72 338.63 755.72 L 338.34 756.54 C 339.18 756.57 340.86 756.63 341.71 756.66 L 341.43 757.22 C 344.21 757.79 346.92 758.75 349.80 758.79 L 349.21 759.30 C 352.05 759.80 354.83 760.64 357.73 760.80 L 357.38 761.34 C 358.63 761.46 359.89 761.61 361.15 761.77 C 363.24 762.65 365.52 762.73 367.75 762.73 L 367.26 763.46 C 369.10 763.56 370.93 763.67 372.79 763.70 L 372.25 764.34 C 374.41 764.56 376.58 764.72 378.75 764.70 L 378.28 765.39 C 380.42 765.54 382.56 765.68 384.71 765.71 L 384.35 766.28 C 386.75 766.49 389.16 766.71 391.58 766.70 L 391.52 767.24 C 394.58 767.47 397.65 767.81 400.72 767.64 L 400.36 768.23 C 404.45 768.47 408.54 768.85 412.64 768.66 L 412.50 769.28 C 419.58 769.51 426.67 769.92 433.77 769.67 L 433.27 770.36 C 434.03 770.37 435.57 770.41 436.34 770.42 C 435.81 772.65 437.54 776.23 434.71 777.28 L 436.32 777.34 C 436.24 779.87 436.26 782.41 436.37 784.96 L 435.74 784.04 L 435.68 786.73 L 436.37 786.29 C 436.09 790.96 436.47 795.65 436.18 800.32 L 434.74 801.29 L 436.33 801.34 C 436.24 804.77 436.24 808.21 436.33 811.66 L 434.71 811.72 L 436.18 812.67 C 436.46 817.41 436.10 822.17 436.36 826.92 L 435.72 826.07 L 435.71 828.93 L 436.44 828.08 C 436.36 829.00 436.19 830.86 436.10 831.79 C 440.93 831.66 445.76 831.79 450.59 831.68 L 451.00 833.42 L 451.41 831.67 C 460.13 831.71 468.86 831.90 477.58 831.51 C 477.50 810.56 477.58 789.62 477.54 768.67 C 480.28 768.76 483.02 768.48 485.75 768.26 L 485.22 767.58 C 487.75 767.79 490.28 767.55 492.81 767.32 L 492.16 766.71 C 494.64 766.75 497.12 766.55 499.58 766.28 L 499.35 765.70 C 501.16 765.65 502.98 765.50 504.79 765.40 L 504.18 764.75 C 507.83 764.76 511.41 763.89 514.86 762.75 C 515.61 762.68 517.10 762.54 517.85 762.47 L 517.19 761.71 C 518.67 761.65 520.14 761.59 521.63 761.52 L 521.38 760.74 C 522.90 760.63 524.50 760.55 525.86 759.77 C 526.54 759.67 527.90 759.47 528.58 759.36 L 528.27 758.69 C 529.09 758.63 530.72 758.51 531.54 758.45 L 531.34 757.86 C 532.53 757.59 533.72 757.28 534.89 756.91 C 536.58 756.31 538.30 755.73 539.87 754.83 C 542.16 754.35 544.08 752.85 546.38 752.42 L 546.48 751.55 C 546.99 751.59 548.02 751.66 548.54 751.70 L 548.38 750.81 C 550.51 750.53 552.34 749.37 554.20 748.39 C 555.08 747.87 555.96 747.34 556.83 746.80 C 560.40 745.25 563.62 742.97 566.84 740.80 C 572.18 737.52 576.78 733.25 581.53 729.21 L 581.50 728.46 L 582.57 728.54 L 582.51 727.84 C 582.84 727.51 583.49 726.86 583.82 726.53 L 584.48 726.54 L 584.52 725.84 C 587.98 722.52 591.04 718.80 593.75 714.85 C 594.52 713.90 595.21 712.90 595.76 711.83 C 596.70 710.51 597.65 709.20 598.60 707.90 C 598.58 707.66 598.52 707.18 598.50 706.94 C 601.02 704.05 602.42 700.37 603.88 696.87 C 604.82 695.31 605.31 693.55 605.96 691.87 C 606.39 690.66 606.70 689.43 606.87 688.17 L 607.40 688.69 C 607.48 687.98 607.64 686.56 607.72 685.85 C 608.66 684.52 608.62 682.89 608.73 681.36 L 609.37 681.56 C 609.50 679.76 609.68 677.98 609.55 676.20 L 610.33 676.81 C 610.49 674.64 610.67 672.48 610.71 670.32 L 611.25 670.60 C 611.94 661.53 611.87 652.42 611.31 643.35 L 610.65 643.66 C 610.77 641.16 610.57 638.67 610.38 636.19 L 609.74 636.83 C 609.71 634.70 609.55 632.59 609.36 630.49 L 608.69 630.60 C 608.60 629.25 608.51 627.90 608.40 626.56 L 607.67 626.60 C 607.62 625.75 607.52 624.06 607.46 623.22 L 606.90 623.94 C 606.74 622.60 606.41 621.32 605.90 620.09 C 605.37 618.31 604.67 616.56 603.57 615.06 C 603.60 614.74 603.66 614.09 603.69 613.76 L 602.83 613.47 C 602.61 612.89 602.17 611.74 601.95 611.16 C 600.15 607.68 598.01 604.39 595.77 601.19 C 594.64 599.55 593.27 598.07 592.23 596.37 L 591.87 596.52 C 590.52 593.86 588.08 592.05 586.17 589.85 C 582.99 586.90 580.20 583.46 576.53 581.13 L 576.59 580.78 C 574.92 579.72 573.54 578.26 571.85 577.24 C 570.62 576.10 569.27 575.13 567.88 574.23 C 566.90 573.29 565.77 572.60 564.51 572.18 L 564.70 571.67 C 563.68 571.03 562.61 570.55 561.47 570.24 L 561.66 569.68 C 560.72 569.18 559.76 568.72 558.80 568.29 C 557.32 567.00 555.62 566.00 553.82 565.24 C 550.34 562.89 546.56 561.01 542.79 559.21 C 541.36 558.05 539.48 557.71 538.06 556.58 C 536.55 556.16 535.25 555.30 533.87 554.62 C 529.67 552.95 525.87 550.34 521.49 549.18 L 521.38 548.61 C 518.23 547.88 515.63 545.74 512.44 545.19 L 512.46 544.71 C 510.18 544.02 508.06 542.90 505.81 542.16 C 504.10 541.26 502.33 540.32 500.37 540.23 L 500.55 539.64 C 498.82 539.16 497.17 538.41 495.38 538.21 L 495.48 537.57 C 493.13 537.15 491.07 535.89 488.82 535.20 C 487.17 534.47 485.52 533.76 483.85 533.11 C 482.70 532.71 481.53 532.40 480.36 532.15 L 480.55 531.38 C 479.80 531.38 478.31 531.39 477.57 531.40 C 477.63 500.76 477.65 470.12 477.56 439.49 C 479.94 439.65 482.32 439.73 484.72 439.71 L 484.36 440.28 C 486.89 440.41 489.42 440.67 491.96 440.74 C 494.82 441.73 497.87 441.74 500.86 441.71 L 500.16 442.38 C 501.77 442.43 503.39 442.63 505.02 442.77 C 507.15 443.54 509.43 443.71 511.70 443.72 L 511.39 444.37 C 513.13 444.47 514.87 444.65 516.63 444.72 L 516.42 445.26 C 519.54 445.63 522.55 446.62 525.70 446.80 L 525.43 447.42 C 526.80 447.51 528.19 447.60 529.58 447.68 L 529.52 448.41 C 530.90 448.52 532.28 448.61 533.68 448.70 L 533.40 449.25 C 535.82 449.71 538.18 450.45 540.63 450.82 L 540.53 451.40 C 541.89 451.51 543.26 451.61 544.64 451.68 L 544.34 452.55 C 545.22 452.58 546.97 452.65 547.84 452.69 L 547.27 453.44 C 548.13 453.50 549.84 453.63 550.70 453.69 L 550.48 454.37 C 551.14 454.47 552.46 454.66 553.13 454.75 C 554.09 455.17 555.07 455.57 556.06 455.97 C 557.24 456.29 558.44 456.59 559.65 456.85 L 559.46 457.48 C 560.60 457.56 562.89 457.72 564.04 457.80 L 561.96 458.52 C 563.76 458.62 565.52 459.09 567.14 459.91 C 568.26 460.31 569.42 460.62 570.61 460.84 L 570.56 461.32 C 572.51 461.75 576.67 464.50 576.82 460.95 C 577.60 459.27 578.45 457.60 578.79 455.77 C 579.83 454.28 580.39 452.53 580.83 450.79 C 581.77 449.10 582.63 447.32 582.77 445.36 L 583.30 445.59 C 583.82 443.86 584.48 442.18 584.80 440.41 L 585.33 440.45 C 585.84 438.78 586.49 437.16 586.80 435.44 L 587.35 435.42 C 587.85 433.75 588.49 432.13 588.82 430.42 L 589.35 430.43 C 589.82 428.75 590.51 427.15 590.82 425.44 L 591.36 425.42 C 591.88 423.74 592.53 422.09 592.84 420.36 L 593.37 420.56 C 593.85 418.82 594.52 417.13 594.83 415.36 L 595.37 415.55 C 595.88 413.84 596.51 412.17 596.82 410.41 L 597.39 410.44 C 597.89 408.75 598.50 407.09 598.85 405.37 L 599.41 405.45 C 599.92 403.14 601.09 401.06 601.79 398.82 C 602.52 397.18 603.24 395.53 603.89 393.85 C 604.17 392.99 604.42 392.13 604.64 391.25 C 604.20 391.30 603.32 391.38 602.89 391.43 C 601.34 390.15 599.41 389.36 597.41 389.22 L 597.45 388.59 C 595.14 388.05 593.02 386.97 590.81 386.14 C 589.83 385.79 588.86 385.43 587.89 385.07 C 586.64 384.59 585.35 384.25 584.04 384.06 L 584.74 383.60 C 579.40 382.60 574.56 379.69 569.12 379.16 L 569.80 378.56 C 568.93 378.49 567.19 378.37 566.32 378.30 L 566.51 377.78 C 564.32 377.29 562.16 376.67 559.97 376.21 C 558.59 375.36 556.91 375.42 555.37 375.24 L 555.51 374.59 C 554.13 374.48 552.76 374.39 551.40 374.31 L 551.52 373.61 C 550.15 373.49 548.78 373.39 547.42 373.30 L 547.42 372.76 C 544.52 372.39 541.70 371.59 538.82 371.13 C 536.71 370.38 534.46 370.26 532.26 370.28 L 532.71 369.60 C 530.93 369.50 529.17 369.32 527.40 369.30 L 527.50 368.70 C 525.48 368.53 523.46 368.34 521.44 368.28 L 521.42 367.75 C 519.28 367.55 517.16 367.36 515.03 367.23 C 512.24 366.18 509.21 366.36 506.29 366.33 L 506.62 365.78 C 503.15 365.52 499.68 365.16 496.21 365.38 L 496.74 364.76 C 491.92 364.61 487.11 363.98 482.30 364.40 L 482.72 363.71 C 480.92 363.68 479.13 363.65 477.35 363.62 C 477.42 348.49 477.27 333.37 477.43 318.25 C 474.30 318.28 471.18 318.25 468.06 318.32 L 468.97 317.64 C 461.04 317.62 453.11 317.65 445.18 317.71 L 445.82 318.34 C 442.61 318.25 439.40 318.28 436.19 318.22 Z" />
<path fill="#000000" opacity="1.00" d=" M 423.37 442.68 C 424.78 442.60 426.20 442.53 427.63 442.45 L 427.33 441.73 C 430.09 441.65 432.84 441.31 435.60 441.11 C 435.64 465.13 435.71 489.16 435.56 513.18 C 432.75 512.39 430.28 510.66 427.39 510.18 L 427.41 509.20 C 426.93 509.28 425.99 509.44 425.52 509.51 L 425.32 508.59 C 424.71 508.26 423.48 507.62 422.87 507.29 C 422.53 507.38 421.85 507.55 421.52 507.63 L 421.59 506.76 C 419.99 505.95 418.43 505.07 416.83 504.28 C 414.86 502.89 412.88 501.49 410.79 500.28 C 409.09 498.81 407.45 497.24 405.50 496.10 L 405.64 495.60 C 405.30 495.29 404.63 494.66 404.30 494.35 L 403.45 494.59 L 403.67 493.42 L 402.92 493.43 C 402.46 492.44 401.78 491.66 400.88 491.10 C 400.61 490.60 400.09 489.59 399.83 489.09 C 398.78 487.32 397.66 485.53 397.32 483.46 L 396.70 483.65 C 396.59 482.24 396.47 480.83 396.35 479.44 L 395.68 479.65 C 395.64 475.91 395.63 472.18 395.68 468.45 L 396.29 468.43 C 396.41 466.75 396.63 465.08 396.71 463.41 L 397.23 463.42 C 399.88 453.86 409.23 448.44 417.80 444.84 C 418.83 444.52 419.85 444.15 420.86 443.75 C 421.54 443.65 422.90 443.45 423.58 443.35 L 423.37 442.68 Z" />
<path fill="#000000" opacity="1.00" d=" M 477.57 619.29 C 483.77 621.39 489.27 625.03 495.19 627.75 C 496.74 629.11 498.54 630.19 500.52 630.84 L 500.43 631.30 C 502.97 632.55 504.94 634.69 507.54 635.84 L 507.35 636.29 C 511.96 639.31 516.20 643.98 517.45 649.44 C 517.66 649.37 518.08 649.23 518.28 649.16 C 518.36 650.05 518.50 651.81 518.57 652.69 L 519.29 652.31 C 519.71 657.41 519.83 662.52 519.28 667.62 L 518.63 667.52 C 518.49 668.89 518.38 670.26 518.29 671.64 L 517.20 671.43 C 517.27 671.95 517.42 673.00 517.49 673.52 L 516.10 673.76 C 516.22 674.09 516.48 674.74 516.60 675.07 C 515.57 675.90 514.73 676.96 514.29 678.23 C 511.54 681.82 508.16 684.86 504.31 687.22 C 503.08 687.68 502.05 688.50 501.08 689.35 C 500.66 689.35 499.82 689.34 499.40 689.34 L 499.66 690.19 C 497.89 690.46 496.24 691.15 494.57 691.71 L 494.63 692.14 C 493.40 692.34 492.23 692.71 491.11 693.23 C 490.40 693.33 488.99 693.52 488.29 693.62 L 488.80 694.28 C 487.34 694.36 485.90 694.46 484.45 694.58 L 484.62 695.27 C 482.27 695.34 479.93 695.63 477.60 695.93 C 477.60 670.39 477.65 644.84 477.57 619.29 Z" />
</svg>
